<?xml version="1.0" encoding="utf-8"?>
<!-- Generator: Adobe Illustrator 15.1.0, SVG Export Plug-In . SVG Version: 6.00 Build 0)  -->
<!DOCTYPE svg PUBLIC "-//W3C//DTD SVG 1.1//EN" "http://www.w3.org/Graphics/SVG/1.1/DTD/svg11.dtd">
<svg version="1.1" xmlns="http://www.w3.org/2000/svg" xmlns:xlink="http://www.w3.org/1999/xlink" x="0px" y="0px" width="360px"
	 height="363.5px" viewBox="0 0 360 363.5" enable-background="new 0 0 360 363.5" xml:space="preserve">
<g id="Layer_1">
	<g>
		<g>
			<path fill-rule="evenodd" clip-rule="evenodd" d="M164.235,24.814c-0.804-0.287-1.399-0.549-1.789-0.787s-0.666-0.498-0.83-0.782
				s-0.246-0.649-0.246-1.094c0-0.604,0.223-1.075,0.668-1.415s1.063-0.51,1.854-0.51c1.002,0,2.033,0.223,3.094,0.668l0.466-1.301
				c-1.072-0.469-2.247-0.703-3.524-0.703c-1.225,0-2.209,0.293-2.953,0.879s-1.116,1.374-1.116,2.364
				c0,0.943,0.256,1.708,0.769,2.294s1.367,1.093,2.562,1.521c0.855,0.305,1.492,0.577,1.911,0.817s0.718,0.502,0.896,0.787
				s0.269,0.649,0.269,1.094c0,0.674-0.252,1.2-0.756,1.578s-1.254,0.567-2.25,0.567c-0.609,0-1.225-0.064-1.846-0.193
				s-1.195-0.305-1.723-0.527v1.441c0.82,0.393,1.992,0.589,3.516,0.589c1.406,0,2.52-0.316,3.34-0.949s1.23-1.515,1.23-2.646
				c0-0.879-0.254-1.594-0.761-2.145S165.582,25.294,164.235,24.814z M174.703,22.133c-0.68,0-1.285,0.133-1.815,0.4
				s-0.938,0.631-1.226,1.094h-0.088c0.047-0.328,0.07-0.741,0.07-1.239v-4.14h-1.459v13.676h1.459v-5.036
				c0-1.254,0.232-2.156,0.698-2.707s1.206-0.826,2.22-0.826c0.762,0,1.321,0.193,1.679,0.58c0.356,0.387,0.536,0.973,0.536,1.758
				v6.231h1.459V25.64c0-1.219-0.295-2.108-0.884-2.667S175.881,22.133,174.703,22.133z M184.854,22.133
				c-0.568,0-1.136,0.073-1.701,0.22s-1.085,0.349-1.56,0.606l0.448,1.116c1.014-0.492,1.921-0.738,2.725-0.738
				c0.715,0,1.234,0.18,1.56,0.541s0.488,0.918,0.488,1.674v0.598l-1.635,0.053c-3.111,0.094-4.667,1.113-4.667,3.059
				c0,0.908,0.271,1.608,0.812,2.101s1.29,0.738,2.246,0.738c0.715,0,1.311-0.107,1.788-0.321s0.957-0.623,1.438-1.226h0.07
				l0.29,1.371h1.081V25.35c0-1.125-0.277-1.942-0.831-2.452S186.002,22.133,184.854,22.133z M186.779,28.057
				c0,0.896-0.26,1.594-0.778,2.092s-1.231,0.747-2.14,0.747c-0.574,0-1.021-0.138-1.341-0.413s-0.479-0.677-0.479-1.204
				c0-0.674,0.256-1.17,0.769-1.49s1.35-0.5,2.51-0.541l1.459-0.062V28.057z M193.978,22.625c-0.505,0.34-0.935,0.823-1.292,1.45
				h-0.07l-0.167-1.784h-1.204v9.633h1.459v-5.168c0-0.943,0.276-1.731,0.83-2.364s1.221-0.949,2-0.949
				c0.305,0,0.656,0.044,1.055,0.132l0.202-1.354c-0.34-0.07-0.724-0.105-1.151-0.105C195.035,22.116,194.481,22.286,193.978,22.625
				z M202.283,22.116c-1.289,0-2.316,0.457-3.081,1.371s-1.146,2.147-1.146,3.7c0,1.541,0.411,2.745,1.234,3.612
				s1.947,1.301,3.371,1.301c0.65,0,1.205-0.048,1.665-0.145s0.947-0.256,1.464-0.479v-1.301c-1.015,0.434-2.039,0.65-3.076,0.65
				c-0.984,0-1.748-0.293-2.29-0.879s-0.827-1.444-0.856-2.575h6.636v-0.923c0-1.301-0.352-2.348-1.055-3.142
				S203.49,22.116,202.283,22.116z M199.603,26.185c0.082-0.891,0.353-1.588,0.812-2.092s1.077-0.756,1.851-0.756
				c0.762,0,1.348,0.245,1.758,0.734s0.615,1.194,0.615,2.114H199.603z M210.312,30.101c-0.19-0.202-0.456-0.303-0.795-0.303
				c-0.334,0-0.591,0.101-0.77,0.303s-0.268,0.5-0.268,0.892c0,0.422,0.098,0.725,0.294,0.91s0.444,0.277,0.743,0.277
				c0.334,0,0.598-0.103,0.791-0.308s0.29-0.498,0.29-0.879C210.598,30.6,210.502,30.303,210.312,30.101z M213.604,31.924
				c0,0.662-0.151,1.169-0.453,1.521s-0.742,0.527-1.322,0.527c-0.451,0-0.885-0.059-1.301-0.176v1.274
				c0.316,0.158,0.75,0.237,1.301,0.237c1.055,0,1.863-0.306,2.426-0.918s0.844-1.475,0.844-2.588V19.075h-1.494V31.924z
				 M224.998,26.361c-0.507-0.551-1.434-1.066-2.781-1.547c-0.803-0.287-1.399-0.549-1.789-0.787s-0.666-0.498-0.83-0.782
				s-0.246-0.649-0.246-1.094c0-0.604,0.223-1.075,0.668-1.415s1.063-0.51,1.854-0.51c1.002,0,2.033,0.223,3.094,0.668l0.466-1.301
				c-1.072-0.469-2.247-0.703-3.524-0.703c-1.225,0-2.209,0.293-2.953,0.879c-0.745,0.586-1.116,1.374-1.116,2.364
				c0,0.943,0.256,1.708,0.769,2.294s1.367,1.093,2.562,1.521c0.855,0.305,1.492,0.577,1.911,0.817s0.718,0.502,0.896,0.787
				s0.269,0.649,0.269,1.094c0,0.674-0.253,1.2-0.756,1.578c-0.505,0.378-1.255,0.567-2.25,0.567c-0.61,0-1.226-0.064-1.846-0.193
				c-0.622-0.129-1.195-0.305-1.723-0.527v1.441c0.82,0.393,1.991,0.589,3.516,0.589c1.406,0,2.519-0.316,3.34-0.949
				c0.82-0.633,1.23-1.515,1.23-2.646C225.759,27.626,225.505,26.912,224.998,26.361z"/>
		</g>
	</g>
</g>
<g id="Layer_12" opacity="0.67">
	<path fill-rule="evenodd" clip-rule="evenodd" fill="none" stroke="#000000" stroke-miterlimit="10" d="M152.017,23.452
		c1.767,0.771,3.003,2.529,3.003,4.581c0,2.761-2.239,5.001-5.001,5.001h-6.002h-2h-6.001c-2.761,0-5-2.24-5-5.001
		c0-2.066,1.253-3.839,3.039-4.601c-0.017-0.132-0.041-0.263-0.041-0.4c0-1.658,1.346-3.001,3.002-3.001
		c0.996,0,1.869,0.488,2.415,1.233c0.922-2.471,3.297-4.234,6.087-4.234C149.082,17.031,151.971,19.898,152.017,23.452"/>
</g>
<g id="Layer_11" opacity="0.62">
	<path fill-rule="evenodd" clip-rule="evenodd" fill="#FF421F" d="M340.634,357.03H317.98v-2h22.654
		c9.591,0,17.365-7.774,17.365-17.365V96.396c0-9.59-7.774-17.365-17.365-17.365h-46.888v-2h46.887
		C351.329,77.03,360,85.7,360,96.396v241.27C360,348.36,351.329,357.03,340.634,357.03z M193,96.396v241.27
		c0,9.591,7.775,17.365,17.365,17.365h22.703v2h-22.702c-10.696,0-19.366-8.67-19.366-19.365V96.396
		c0-10.695,8.67-19.365,19.366-19.365h35.626v2h-35.627C200.775,79.03,193,86.805,193,96.396z"/>
	<path fill-rule="evenodd" clip-rule="evenodd" fill="#FF421F" d="M19.366,357.03H42.02v-2H19.365C9.774,355.03,2,347.256,2,337.665
		V96.396c0-9.59,7.774-17.365,17.365-17.365h46.888v-2H19.366C8.671,77.03,0,85.7,0,96.396v241.27
		C0,348.36,8.671,357.03,19.366,357.03z M167,96.396v241.27c0,9.591-7.775,17.365-17.365,17.365h-22.703v2h22.702
		c10.696,0,19.366-8.67,19.366-19.365V96.396c0-10.695-8.67-19.365-19.366-19.365h-35.626v2h35.627
		C159.225,79.03,167,86.805,167,96.396z"/>
</g>
<g id="Layer_10">
	<path fill="#006ABC" d="M71.64,293.136c-0.088,0.25-0.203,0.635-0.344,1.156c-0.141,0.521-0.244,0.979-0.312,1.375
		c-0.041-0.261-0.133-0.658-0.273-1.191c-0.141-0.534-0.273-0.971-0.398-1.309l-2.383-7.103h-1.922l3.984,11.423h1.969l4-11.423
		h-1.938L71.64,293.136z"/>
	<path fill="#006ABC" d="M79.108,288.847h-1.836v8.641h1.836V288.847z M77.433,287.296c0.18,0.18,0.437,0.269,0.77,0.269
		c0.323,0,0.574-0.089,0.754-0.269c0.18-0.181,0.27-0.427,0.27-0.739c0-0.327-0.09-0.58-0.27-0.757
		c-0.18-0.178-0.431-0.266-0.754-0.266c-0.333,0-0.59,0.088-0.77,0.266c-0.18,0.177-0.27,0.43-0.27,0.757
		C77.163,286.869,77.253,287.115,77.433,287.296z"/>
	<path fill="#006ABC" d="M87.077,297.511c0.459-0.089,0.912-0.24,1.359-0.454v-1.492c-0.505,0.225-0.978,0.385-1.418,0.481
		c-0.439,0.096-0.915,0.144-1.426,0.144c-0.775,0-1.377-0.225-1.805-0.675c-0.427-0.451-0.653-1.096-0.68-1.934h5.758v-0.992
		c0-1.214-0.33-2.167-0.992-2.859c-0.661-0.693-1.562-1.04-2.703-1.04c-1.229,0-2.195,0.404-2.898,1.212
		c-0.703,0.807-1.055,1.916-1.055,3.328c0,1.375,0.379,2.454,1.137,3.238c0.758,0.783,1.809,1.176,3.152,1.176
		C86.096,297.644,86.619,297.599,87.077,297.511z M86.546,290.632c0.334,0.366,0.506,0.907,0.516,1.62H83.14
		c0.068-0.708,0.277-1.247,0.629-1.616c0.352-0.37,0.819-0.555,1.402-0.555C85.755,290.081,86.213,290.265,86.546,290.632z"/>
	<path fill="#006ABC" d="M100.101,297.487l2.438-8.641h-1.844l-1.117,4.258c-0.286,1.15-0.469,2.047-0.547,2.688h-0.062
		c-0.021-0.292-0.09-0.701-0.207-1.228c-0.117-0.525-0.215-0.916-0.293-1.171l-1.273-4.547h-2.016l-1.312,4.547
		c-0.078,0.244-0.17,0.613-0.277,1.104c-0.106,0.492-0.186,0.929-0.238,1.309h-0.047c-0.104-0.75-0.281-1.65-0.531-2.702
		l-1.102-4.258h-1.875l2.422,8.641h2.031l1.148-4.016c0.178-0.589,0.417-1.586,0.719-2.992h0.07c0.354,1.557,0.6,2.549,0.734,2.977
		l1.117,4.031H100.101z"/>
	<path fill="#006ABC" d="M262.662,293.136c-0.089,0.25-0.203,0.635-0.344,1.156c-0.141,0.521-0.245,0.979-0.312,1.375
		c-0.042-0.261-0.133-0.658-0.273-1.191c-0.141-0.534-0.273-0.971-0.398-1.309l-2.383-7.103h-1.922l3.984,11.423h1.969l4-11.423
		h-1.938L262.662,293.136z"/>
	<path fill="#006ABC" d="M270.131,288.847h-1.836v8.641h1.836V288.847z M268.455,287.296c0.18,0.18,0.436,0.269,0.77,0.269
		c0.322,0,0.574-0.089,0.754-0.269c0.18-0.181,0.27-0.427,0.27-0.739c0-0.327-0.09-0.58-0.27-0.757
		c-0.18-0.178-0.432-0.266-0.754-0.266c-0.334,0-0.59,0.088-0.77,0.266c-0.18,0.177-0.27,0.43-0.27,0.757
		C268.186,286.869,268.275,287.115,268.455,287.296z"/>
	<path fill="#006ABC" d="M278.1,297.511c0.458-0.089,0.911-0.24,1.359-0.454v-1.492c-0.506,0.225-0.979,0.385-1.418,0.481
		c-0.44,0.096-0.916,0.144-1.426,0.144c-0.776,0-1.378-0.225-1.805-0.675c-0.428-0.451-0.654-1.096-0.68-1.934h5.758v-0.992
		c0-1.214-0.331-2.167-0.992-2.859c-0.662-0.693-1.562-1.04-2.703-1.04c-1.229,0-2.195,0.404-2.898,1.212
		c-0.703,0.807-1.055,1.916-1.055,3.328c0,1.375,0.379,2.454,1.137,3.238c0.758,0.783,1.809,1.176,3.152,1.176
		C277.117,297.644,277.641,297.599,278.1,297.511z M277.568,290.632c0.333,0.366,0.505,0.907,0.516,1.62h-3.922
		c0.067-0.708,0.277-1.247,0.629-1.616c0.352-0.37,0.818-0.555,1.402-0.555C276.776,290.081,277.234,290.265,277.568,290.632z"/>
	<path fill="#006ABC" d="M291.123,297.487l2.438-8.641h-1.844l-1.117,4.258c-0.287,1.15-0.469,2.047-0.547,2.688h-0.062
		c-0.021-0.292-0.09-0.701-0.207-1.228c-0.117-0.525-0.215-0.916-0.293-1.171l-1.273-4.547h-2.016l-1.312,4.547
		c-0.078,0.244-0.171,0.613-0.277,1.104c-0.107,0.492-0.187,0.929-0.238,1.309h-0.047c-0.104-0.75-0.281-1.65-0.531-2.702
		l-1.102-4.258h-1.875l2.422,8.641h2.031l1.148-4.016c0.177-0.589,0.416-1.586,0.719-2.992h0.07
		c0.354,1.557,0.599,2.549,0.734,2.977l1.117,4.031H291.123z"/>
</g>
<g id="Layer_9">
	<path fill="#015F01" d="M244.937,197.408c0.43,0.138,0.837,0.298,1.223,0.48l0.672-1.555c-0.989-0.489-2.067-0.734-3.234-0.734
		c-1.109,0-2.075,0.237-2.898,0.711s-1.452,1.156-1.887,2.047s-0.652,1.93-0.652,3.117c0,1.886,0.448,3.335,1.344,4.348
		s2.18,1.52,3.852,1.52c1.136,0,2.151-0.169,3.047-0.508v-1.602c-0.489,0.151-0.961,0.274-1.414,0.371s-0.922,0.145-1.406,0.145
		c-1.12,0-1.976-0.359-2.566-1.078s-0.887-1.778-0.887-3.18c0-1.339,0.308-2.388,0.922-3.148s1.458-1.141,2.531-1.141
		C244.055,197.201,244.507,197.271,244.937,197.408z"/>
	<path fill="#015F01" d="M255.237,199.596c-0.729-0.805-1.719-1.207-2.969-1.207c-1.308,0-2.32,0.394-3.039,1.18
		s-1.078,1.88-1.078,3.281c0,0.901,0.167,1.692,0.5,2.375s0.81,1.206,1.43,1.57s1.333,0.547,2.141,0.547
		c1.292,0,2.3-0.396,3.023-1.188s1.086-1.894,1.086-3.305C256.331,201.485,255.967,200.4,255.237,199.596z M250.562,200.654
		c0.347-0.511,0.905-0.766,1.676-0.766c1.469,0,2.203,0.987,2.203,2.961c0,1.995-0.729,2.992-2.188,2.992
		c-1.474,0-2.211-0.997-2.211-2.992C250.042,201.896,250.215,201.165,250.562,200.654z"/>
	<path fill="#015F01" d="M266.042,201.553c0-2.109-1.036-3.164-3.109-3.164c-0.583,0-1.114,0.112-1.594,0.336
		s-0.849,0.542-1.109,0.953h-0.094l-0.258-1.133h-1.438v8.641h1.836v-4.305c0-1.078,0.18-1.847,0.539-2.305s0.927-0.688,1.703-0.688
		c0.583,0,1.009,0.164,1.277,0.492s0.402,0.825,0.402,1.492v5.312h1.844V201.553z"/>
	<path fill="#015F01" d="M270.944,205.541c-0.222-0.211-0.332-0.538-0.332-0.98v-4.625h2.461v-1.391h-2.461v-1.922h-1.133
		l-0.625,1.828l-1.266,0.672v0.812h1.18v4.656c0,1.833,0.87,2.75,2.609,2.75c0.344,0,0.676-0.03,0.996-0.09s0.582-0.134,0.785-0.223
		v-1.383c-0.448,0.141-0.896,0.211-1.344,0.211C271.456,205.857,271.166,205.752,270.944,205.541z"/>
	<path fill="#015F01" d="M277.78,198.842c-0.461,0.302-0.835,0.711-1.121,1.227h-0.094l-0.242-1.523h-1.438v8.641h1.836v-4.516
		c0-0.766,0.228-1.388,0.684-1.867s1.051-0.719,1.785-0.719c0.281,0,0.552,0.031,0.812,0.094l0.18-1.711
		c-0.239-0.052-0.544-0.078-0.914-0.078C278.737,198.389,278.241,198.54,277.78,198.842z"/>
	<path fill="#015F01" d="M288.354,199.596c-0.729-0.805-1.719-1.207-2.969-1.207c-1.308,0-2.32,0.394-3.039,1.18
		s-1.078,1.88-1.078,3.281c0,0.901,0.167,1.692,0.5,2.375s0.81,1.206,1.43,1.57s1.333,0.547,2.141,0.547
		c1.292,0,2.3-0.396,3.023-1.188s1.086-1.894,1.086-3.305C289.448,201.485,289.084,200.4,288.354,199.596z M283.679,200.654
		c0.347-0.511,0.905-0.766,1.676-0.766c1.469,0,2.203,0.987,2.203,2.961c0,1.995-0.729,2.992-2.188,2.992
		c-1.474,0-2.211-0.997-2.211-2.992C283.159,201.896,283.332,201.165,283.679,200.654z"/>
	<path fill="#015F01" d="M293.394,195.029h-1.836v12.156h1.836V195.029z"/>
	<path fill="#015F01" d="M297.854,195.029h-1.836v12.156h1.836V195.029z"/>
	<path fill="#015F01" d="M305.823,207.209c0.458-0.089,0.911-0.239,1.359-0.453v-1.492c-0.505,0.224-0.978,0.384-1.418,0.48
		s-0.915,0.145-1.426,0.145c-0.776,0-1.378-0.226-1.805-0.676s-0.653-1.095-0.68-1.934h5.758v-0.992
		c0-1.214-0.331-2.167-0.992-2.859s-1.562-1.039-2.703-1.039c-1.229,0-2.195,0.403-2.898,1.211s-1.055,1.917-1.055,3.328
		c0,1.375,0.379,2.454,1.137,3.238s1.809,1.176,3.152,1.176C304.842,207.342,305.365,207.298,305.823,207.209z M305.292,200.33
		c0.333,0.367,0.505,0.907,0.516,1.621h-3.922c0.067-0.708,0.277-1.247,0.629-1.617s0.819-0.555,1.402-0.555
		S304.959,199.963,305.292,200.33z"/>
	<path fill="#015F01" d="M312.593,198.842c-0.461,0.302-0.835,0.711-1.121,1.227h-0.094l-0.242-1.523h-1.438v8.641h1.836v-4.516
		c0-0.766,0.228-1.388,0.684-1.867s1.051-0.719,1.785-0.719c0.281,0,0.552,0.031,0.812,0.094l0.18-1.711
		c-0.239-0.052-0.544-0.078-0.914-0.078C313.55,198.389,313.054,198.54,312.593,198.842z"/>
	<path fill="#015F01" d="M53.914,197.408c0.431,0.138,0.838,0.298,1.223,0.48l0.672-1.555c-0.989-0.489-2.067-0.734-3.234-0.734
		c-1.108,0-2.075,0.237-2.898,0.711c-0.822,0.474-1.451,1.156-1.887,2.047c-0.435,0.891-0.652,1.93-0.652,3.117
		c0,1.886,0.448,3.335,1.344,4.348c0.896,1.013,2.181,1.52,3.853,1.52c1.135,0,2.15-0.169,3.046-0.508v-1.602
		c-0.489,0.151-0.961,0.274-1.413,0.371c-0.454,0.097-0.923,0.145-1.407,0.145c-1.119,0-1.975-0.359-2.566-1.078
		c-0.591-0.719-0.887-1.778-0.887-3.18c0-1.339,0.308-2.388,0.923-3.148c0.614-0.761,1.458-1.141,2.53-1.141
		C53.033,197.201,53.484,197.271,53.914,197.408z"/>
	<path fill="#015F01" d="M64.216,199.596c-0.729-0.805-1.72-1.207-2.97-1.207c-1.307,0-2.32,0.394-3.038,1.18
		c-0.72,0.786-1.079,1.88-1.079,3.281c0,0.901,0.167,1.692,0.5,2.375c0.334,0.683,0.811,1.206,1.43,1.57
		c0.62,0.364,1.334,0.547,2.141,0.547c1.292,0,2.3-0.396,3.024-1.188c0.724-0.792,1.085-1.894,1.085-3.305
		C65.309,201.485,64.944,200.4,64.216,199.596z M59.539,200.654c0.347-0.511,0.905-0.766,1.677-0.766
		c1.468,0,2.202,0.987,2.202,2.961c0,1.995-0.729,2.992-2.188,2.992c-1.474,0-2.21-0.997-2.21-2.992
		C59.021,201.896,59.193,201.165,59.539,200.654z"/>
	<path fill="#015F01" d="M75.02,201.553c0-2.109-1.036-3.164-3.108-3.164c-0.584,0-1.115,0.112-1.595,0.336
		c-0.479,0.224-0.849,0.542-1.109,0.953h-0.094l-0.258-1.133h-1.438v8.641h1.836v-4.305c0-1.078,0.18-1.847,0.539-2.305
		c0.36-0.458,0.928-0.688,1.703-0.688c0.584,0,1.01,0.164,1.277,0.492c0.269,0.328,0.402,0.825,0.402,1.492v5.312h1.844V201.553z"/>
	<path fill="#015F01" d="M79.922,205.541c-0.221-0.211-0.331-0.538-0.331-0.98v-4.625h2.46v-1.391h-2.46v-1.922h-1.133l-0.625,1.828
		l-1.267,0.672v0.812h1.18v4.656c0,1.833,0.87,2.75,2.609,2.75c0.344,0,0.677-0.03,0.996-0.09c0.32-0.06,0.582-0.134,0.785-0.223
		v-1.383c-0.447,0.141-0.896,0.211-1.344,0.211C80.434,205.857,80.144,205.752,79.922,205.541z"/>
	<path fill="#015F01" d="M86.758,198.842c-0.461,0.302-0.834,0.711-1.121,1.227h-0.094l-0.242-1.523h-1.438v8.641h1.836v-4.516
		c0-0.766,0.229-1.388,0.684-1.867c0.456-0.479,1.051-0.719,1.785-0.719c0.281,0,0.553,0.031,0.812,0.094l0.181-1.711
		c-0.24-0.052-0.545-0.078-0.915-0.078C87.716,198.389,87.22,198.54,86.758,198.842z"/>
	<path fill="#015F01" d="M97.333,199.596c-0.729-0.805-1.72-1.207-2.97-1.207c-1.307,0-2.32,0.394-3.039,1.18
		s-1.078,1.88-1.078,3.281c0,0.901,0.167,1.692,0.5,2.375c0.334,0.683,0.811,1.206,1.43,1.57c0.62,0.364,1.334,0.547,2.141,0.547
		c1.292,0,2.3-0.396,3.024-1.188c0.724-0.792,1.085-1.894,1.085-3.305C98.426,201.485,98.062,200.4,97.333,199.596z M92.657,200.654
		c0.346-0.511,0.904-0.766,1.676-0.766c1.468,0,2.202,0.987,2.202,2.961c0,1.995-0.729,2.992-2.188,2.992
		c-1.474,0-2.211-0.997-2.211-2.992C92.137,201.896,92.311,201.165,92.657,200.654z"/>
	<path fill="#015F01" d="M102.371,195.029h-1.836v12.156h1.836V195.029z"/>
	<path fill="#015F01" d="M106.833,195.029h-1.837v12.156h1.837V195.029z"/>
	<path fill="#015F01" d="M114.801,207.209c0.459-0.089,0.912-0.239,1.359-0.453v-1.492c-0.505,0.224-0.978,0.384-1.418,0.48
		c-0.439,0.097-0.915,0.145-1.426,0.145c-0.775,0-1.377-0.226-1.805-0.676c-0.427-0.45-0.653-1.095-0.679-1.934h5.758v-0.992
		c0-1.214-0.331-2.167-0.993-2.859c-0.661-0.692-1.562-1.039-2.702-1.039c-1.229,0-2.196,0.403-2.899,1.211
		s-1.055,1.917-1.055,3.328c0,1.375,0.379,2.454,1.137,3.238c0.759,0.784,1.809,1.176,3.152,1.176
		C113.819,207.342,114.343,207.298,114.801,207.209z M114.271,200.33c0.333,0.367,0.505,0.907,0.515,1.621h-3.922
		c0.068-0.708,0.277-1.247,0.629-1.617c0.353-0.37,0.819-0.555,1.403-0.555C113.479,199.779,113.937,199.963,114.271,200.33z"/>
	<path fill="#015F01" d="M121.57,198.842c-0.461,0.302-0.834,0.711-1.121,1.227h-0.094l-0.242-1.523h-1.438v8.641h1.836v-4.516
		c0-0.766,0.229-1.388,0.684-1.867c0.456-0.479,1.051-0.719,1.785-0.719c0.281,0,0.553,0.031,0.812,0.094l0.18-1.711
		c-0.239-0.052-0.544-0.078-0.914-0.078C122.528,198.389,122.032,198.54,121.57,198.842z"/>
</g>
<g id="Layer_8" opacity="0.45">
	<path fill-rule="evenodd" clip-rule="evenodd" d="M283.762,151.498c0.72,0,1.303,0.583,1.303,1.302v9.551
		c0,0.719-0.583,1.302-1.303,1.302c-0.719,0-1.303-0.583-1.303-1.302V152.8C282.459,152.081,283.043,151.498,283.762,151.498z"/>
	<path fill-rule="evenodd" clip-rule="evenodd" d="M278.236,154.103l5.525-6.985l5.526,6.985"/>
	<path fill-rule="evenodd" clip-rule="evenodd" d="M267.265,161.022c-0.72,0-1.303-0.583-1.303-1.303v-9.551
		c0-0.719,0.583-1.303,1.303-1.303s1.303,0.583,1.303,1.303v9.551C268.567,160.438,267.984,161.022,267.265,161.022z"/>
	<path fill-rule="evenodd" clip-rule="evenodd" d="M272.79,158.417l-5.525,6.985l-5.525-6.985"/>
	<path fill-rule="evenodd" clip-rule="evenodd" d="M283.762,241.799c0.72,0,1.303,0.583,1.303,1.303v9.552
		c0,0.719-0.583,1.302-1.303,1.302c-0.719,0-1.303-0.583-1.303-1.302v-9.552C282.459,242.382,283.043,241.799,283.762,241.799z"/>
	<path fill-rule="evenodd" clip-rule="evenodd" d="M278.236,244.403l5.525-6.984l5.526,6.984"/>
	<path fill-rule="evenodd" clip-rule="evenodd" d="M267.265,251.323c-0.72,0-1.303-0.583-1.303-1.303v-9.551
		c0-0.719,0.583-1.303,1.303-1.303s1.303,0.584,1.303,1.303v9.551C268.567,250.74,267.984,251.323,267.265,251.323z"/>
	<path fill-rule="evenodd" clip-rule="evenodd" d="M272.79,248.718l-5.525,6.985l-5.525-6.985"/>
	<path fill-rule="evenodd" clip-rule="evenodd" d="M92.74,151.498c0.719,0,1.302,0.583,1.302,1.302v9.551
		c0,0.719-0.583,1.302-1.302,1.302c-0.72,0-1.303-0.583-1.303-1.302V152.8C91.438,152.081,92.021,151.498,92.74,151.498z"/>
	<path fill-rule="evenodd" clip-rule="evenodd" d="M87.214,154.103l5.526-6.985l5.525,6.985"/>
	<path fill-rule="evenodd" clip-rule="evenodd" d="M76.242,161.022c-0.719,0-1.302-0.583-1.302-1.303v-9.551
		c0-0.719,0.583-1.303,1.302-1.303c0.72,0,1.303,0.583,1.303,1.303v9.551C77.545,160.438,76.962,161.022,76.242,161.022z"/>
	<path fill-rule="evenodd" clip-rule="evenodd" d="M81.769,158.417l-5.526,6.985l-5.525-6.985"/>
	<path fill-rule="evenodd" clip-rule="evenodd" d="M92.74,241.799c0.719,0,1.302,0.583,1.302,1.303v9.552
		c0,0.719-0.583,1.302-1.302,1.302c-0.72,0-1.303-0.583-1.303-1.302v-9.552C91.438,242.382,92.021,241.799,92.74,241.799z"/>
	<path fill-rule="evenodd" clip-rule="evenodd" d="M87.214,244.403l5.526-6.984l5.525,6.984"/>
	<path fill-rule="evenodd" clip-rule="evenodd" d="M76.242,251.323c-0.719,0-1.302-0.583-1.302-1.303v-9.551
		c0-0.719,0.583-1.303,1.302-1.303c0.72,0,1.303,0.584,1.303,1.303v9.551C77.545,250.74,76.962,251.323,76.242,251.323z"/>
	<path fill-rule="evenodd" clip-rule="evenodd" d="M81.769,248.718l-5.526,6.985l-5.525-6.985"/>
	<path fill-rule="evenodd" clip-rule="evenodd" d="M263.367,53.435c0.508-0.509,1.333-0.509,1.842,0l18.103,18.103
		c0.509,0.508,0.509,1.333,0,1.842s-1.333,0.509-1.842,0l-18.103-18.103C262.858,54.768,262.858,53.943,263.367,53.435z"/>
	<path fill-rule="evenodd" clip-rule="evenodd" d="M263.038,60.92l-1.032-8.846l8.847,1.032"/>
	<path fill-rule="evenodd" clip-rule="evenodd" d="M259.305,71.834c-0.509,0.508-1.334,0.508-1.842,0l-6.754-6.754
		c-0.509-0.508-0.509-1.333,0-1.842s1.333-0.509,1.842,0l6.754,6.753C259.812,70.501,259.812,71.326,259.305,71.834z"/>
	<path fill-rule="evenodd" clip-rule="evenodd" d="M260.501,65.217l1.032,8.846l-8.847-1.032"/>
	<path fill-rule="evenodd" clip-rule="evenodd" d="M96.638,53.435c-0.509-0.509-1.333-0.509-1.842,0L76.692,71.538
		c-0.509,0.508-0.509,1.333,0,1.842s1.334,0.509,1.842,0l18.104-18.103C97.146,54.768,97.146,53.943,96.638,53.435z"/>
	<path fill-rule="evenodd" clip-rule="evenodd" d="M96.967,60.92l1.031-8.846l-8.846,1.032"/>
	<path fill-rule="evenodd" clip-rule="evenodd" d="M100.7,71.834c0.509,0.508,1.333,0.508,1.842,0l6.754-6.754
		c0.509-0.508,0.509-1.333,0-1.842s-1.333-0.509-1.842,0l-6.754,6.753C100.191,70.501,100.191,71.326,100.7,71.834z"/>
	<path fill-rule="evenodd" clip-rule="evenodd" d="M99.503,65.217l-1.031,8.846l8.846-1.032"/>
</g>
<g id="Layer_7">
	<path fill="#FF3A1E" d="M249.501,360.221c0.533-0.127,1.048-0.296,1.545-0.507c0.496-0.211,0.971-0.452,1.422-0.725
		s0.872-0.55,1.265-0.831c0.902-0.657,1.754-1.412,2.557-2.267l-1.764-1.792c-0.355,0.339-0.789,0.698-1.299,1.076
		c-0.511,0.379-1.053,0.729-1.627,1.05c-0.574,0.32-1.165,0.588-1.771,0.802c-0.606,0.214-1.183,0.321-1.729,0.321
		c-0.174,0-0.337-0.018-0.487-0.054c-0.151-0.035-0.295-0.098-0.433-0.187c-0.137-0.09-0.272-0.214-0.404-0.375
		c-0.133-0.16-0.268-0.36-0.405-0.602c0.795-0.214,1.532-0.513,2.213-0.896c0.681-0.384,1.267-0.82,1.761-1.311
		c0.493-0.49,0.925-1.078,1.294-1.765c0.37-0.686,0.556-1.306,0.556-1.858c0-0.519-0.092-0.987-0.274-1.405
		c-0.183-0.419-0.436-0.776-0.76-1.072c-0.323-0.296-0.704-0.525-1.143-0.689c-0.438-0.164-0.912-0.246-1.423-0.246
		c-0.626,0-1.195,0.11-1.707,0.33c-0.512,0.221-0.975,0.518-1.387,0.891c-0.413,0.374-0.773,0.806-1.082,1.296
		c-0.308,0.49-0.563,1.005-0.768,1.545s-0.401,1.158-0.592,1.855s-0.285,1.298-0.285,1.802c0,0.77,0.106,1.505,0.319,2.205
		c0.212,0.701,0.531,1.317,0.957,1.852c0.426,0.533,0.958,0.957,1.596,1.272c0.639,0.315,1.383,0.474,2.234,0.474
		C248.427,360.411,248.968,360.348,249.501,360.221z M246.082,353.19c0.019-0.275,0.103-0.628,0.254-1.056
		c0.15-0.428,0.283-0.786,0.397-1.076s0.266-0.548,0.453-0.775s0.421-0.412,0.7-0.555s0.615-0.214,1.009-0.214
		c0.22,0,0.404,0.129,0.556,0.388c0.15,0.259,0.227,0.588,0.227,0.989c0,0.285-0.16,0.646-0.48,1.083s-0.647,0.784-0.981,1.042
		c-0.334,0.259-0.695,0.471-1.084,0.636s-0.748,0.247-1.077,0.247C246.055,353.703,246.063,353.467,246.082,353.19z"/>
	<path fill="#FF3A1E" d="M259.337,358.778c0.031,0.293,0.096,0.561,0.191,0.804s0.229,0.442,0.403,0.597
		c0.173,0.155,0.405,0.232,0.697,0.232c0.383,0,0.72-0.065,1.012-0.197c0.291-0.131,0.556-0.387,0.793-0.768l2.775-7.023h0.205
		c-0.073,0.663-0.13,1.318-0.171,1.967s-0.062,1.263-0.062,1.842c0,0.599,0.029,1.152,0.089,1.661
		c0.059,0.51,0.157,0.951,0.294,1.326s0.316,0.668,0.54,0.878c0.223,0.209,0.499,0.314,0.827,0.314c0.665,0,1.262-0.086,1.791-0.259
		c0.528-0.173,1.014-0.394,1.456-0.663c0.441-0.271,0.861-0.571,1.258-0.903c0.396-0.331,0.795-0.652,1.196-0.962l-0.232-3.241
		c-0.438,0.533-0.88,1.012-1.326,1.435c-0.191,0.185-0.393,0.361-0.602,0.532c-0.21,0.17-0.424,0.319-0.643,0.448
		s-0.434,0.234-0.643,0.317c-0.21,0.083-0.41,0.124-0.602,0.124c-0.183,0-0.338-0.156-0.465-0.47
		c-0.128-0.312-0.191-0.717-0.191-1.214c0-0.635,0.031-1.235,0.096-1.801c0.063-0.565,0.159-1.193,0.287-1.884
		c0.127-0.689,0.223-1.32,0.287-1.891c0.063-0.57,0.096-1.173,0.096-1.808c0-0.414-0.148-0.733-0.444-0.959
		c-0.297-0.226-0.659-0.338-1.087-0.338c-0.383,0-0.707,0.127-0.971,0.38c-0.265,0.253-0.529,0.563-0.793,0.931
		c-0.273,0.378-0.567,0.814-0.882,1.312s-0.611,0.971-0.889,1.421c-0.278,0.451-0.536,0.904-0.772,1.359
		c-0.237,0.455-0.365,0.697-0.383,0.725l-0.15-0.166c0-0.018,0.004-0.055,0.014-0.11c0.027-0.175,0.055-0.308,0.082-0.399
		c0.164-0.571,0.277-1.008,0.342-1.312c0.082-0.35,0.154-0.644,0.219-0.883c0.055-0.212,0.109-0.524,0.164-0.938
		c0.045-0.322,0.068-0.662,0.068-1.021c0-0.414-0.137-0.733-0.41-0.959s-0.602-0.338-0.984-0.338c-0.41,0-0.764,0.124-1.06,0.372
		c-0.297,0.249-0.577,0.562-0.841,0.938c-0.273,0.378-0.561,0.812-0.861,1.305s-0.581,0.964-0.841,1.414
		c-0.26,0.451-0.502,0.906-0.725,1.366c-0.224,0.46-0.345,0.704-0.362,0.731l-0.15-0.166c0.137-0.772,0.269-1.472,0.396-2.098
		c0.009-0.018,0.045-0.257,0.109-0.717c0.036-0.239,0.063-0.474,0.082-0.704c0.027-0.229,0.048-0.446,0.062-0.648
		s0.021-0.382,0.021-0.538c0-0.285-0.01-0.511-0.027-0.677c-0.019-0.165-0.075-0.292-0.171-0.379
		c-0.096-0.088-0.242-0.143-0.438-0.166c-0.196-0.022-0.468-0.034-0.813-0.034c-0.229,0-0.415,0.016-0.561,0.048
		c-0.146,0.032-0.271,0.097-0.376,0.193c-0.105,0.097-0.198,0.232-0.28,0.407s-0.169,0.409-0.26,0.704
		c-0.092,0.285-0.191,0.653-0.301,1.104c-0.109,0.451-0.217,0.948-0.321,1.49c-0.105,0.543-0.229,1.18-0.369,1.908
		c-0.142,0.729-0.249,1.379-0.321,1.948c-0.073,0.568-0.133,1.11-0.178,1.624c-0.046,0.514-0.068,0.959-0.068,1.335
		c0,0.354,0.021,0.696,0.062,1.028s0.123,0.628,0.246,0.889c0.123,0.262,0.298,0.47,0.526,0.624
		c0.228,0.155,0.528,0.232,0.902,0.232c0.291,0,0.558-0.064,0.8-0.192c0.241-0.128,0.453-0.374,0.636-0.736
		c0.629-1.23,1.142-2.27,1.538-3.117c0.396-0.849,0.722-1.539,0.978-2.071c0.255-0.531,0.453-0.936,0.595-1.21
		c0.141-0.275,0.267-0.481,0.376-0.619h0.205c-0.146,0.842-0.27,1.629-0.369,2.361c-0.046,0.312-0.092,0.625-0.137,0.94
		c-0.046,0.316-0.087,0.616-0.123,0.899c-0.037,0.284-0.064,0.536-0.082,0.755c-0.019,0.22-0.027,0.39-0.027,0.509
		C259.289,358.204,259.305,358.487,259.337,358.778z"/>
	<path fill="#FF3A1E" d="M275.49,349.22c0.638-0.771,1.278-1.594,1.921-2.466s1.224-1.765,1.743-2.678s0.94-1.828,1.265-2.746
		c0.323-0.918,0.485-1.808,0.485-2.671c0-0.62-0.037-1.203-0.109-1.75c-0.073-0.547-0.224-1.023-0.451-1.429
		c-0.229-0.405-0.552-0.727-0.971-0.964c-0.42-0.237-0.976-0.355-1.668-0.355c-0.62,0-1.196,0.251-1.729,0.752
		s-1.025,1.167-1.478,1.996c-0.451,0.829-0.86,1.775-1.23,2.837c-0.369,1.062-0.664,2.22-0.887,3.475
		c-0.222,1.254-0.407,2.3-0.555,3.136c-0.139,1.094-0.25,2.092-0.333,2.994c-0.166,0.802-0.341,2.063-0.525,3.786
		c-0.129,1.167-0.226,2.155-0.29,2.967c-0.082,0.93-0.137,1.765-0.164,2.503c0.484,0.355,0.986,0.702,1.506,1.039
		c0.283,0.173,0.973,0.41,2.068,0.711c0.118,0.036,0.89,0.055,2.313,0.055h0.343c0.347-0.137,0.671-0.278,0.973-0.424
		c0.265-0.128,0.531-0.269,0.801-0.424c0.269-0.155,0.481-0.31,0.637-0.465c0.638-0.146,1.241-0.312,1.812-0.494
		c0.569-0.184,1.116-0.4,1.641-0.652c0.523-0.252,1.034-0.547,1.531-0.886c0.496-0.339,0.995-0.737,1.497-1.195l-1.053-2.272
		c-0.365,0.368-0.721,0.687-1.066,0.958c-0.347,0.271-0.69,0.517-1.032,0.736c-0.342,0.221-0.682,0.423-1.019,0.606
		c-0.338,0.184-0.67,0.371-0.998,0.564c0.273-0.423,0.494-0.831,0.663-1.226c0.168-0.396,0.301-0.792,0.396-1.191
		s0.161-0.809,0.198-1.226c0.036-0.418,0.055-0.861,0.055-1.33c0-0.55-0.078-1.077-0.232-1.582c-0.155-0.504-0.379-0.951-0.67-1.338
		c-0.292-0.388-0.647-0.699-1.066-0.934c-0.42-0.234-0.898-0.352-1.436-0.352c-0.42,0-0.841,0.19-1.265,0.571
		c-0.424,0.38-0.892,0.884-1.401,1.511L275.49,349.22z M277.82,350.493c0.232,0.097,0.415,0.223,0.547,0.379
		c0.133,0.156,0.224,0.337,0.274,0.544c0.05,0.206,0.075,0.425,0.075,0.654c0,0.349-0.023,0.732-0.068,1.15
		c-0.046,0.417-0.114,0.84-0.205,1.267c-0.092,0.427-0.21,0.838-0.355,1.232c-0.146,0.396-0.319,0.746-0.52,1.054
		c-0.201,0.308-0.429,0.554-0.684,0.737c-0.256,0.184-0.538,0.275-0.848,0.275c-0.265,0-0.543,0.022-0.834,0.068
		c-0.292,0.046-0.57,0.041-0.834-0.014c-0.301-0.063-0.602-0.142-0.902-0.232c0.033-0.321,0.073-0.665,0.119-1.032
		c0.033-0.316,0.075-0.678,0.125-1.085c0.127-1.077,0.189-1.625,0.189-1.643c-0.1-0.194,0.055-0.723,0.466-1.583
		c0.21-0.444,0.451-0.809,0.725-1.091s0.57-0.49,0.89-0.625c0.318-0.134,0.639-0.201,0.957-0.201
		C277.294,350.349,277.588,350.396,277.82,350.493z M277.974,339.787c-0.158,0.624-0.357,1.239-0.598,1.846
		c-0.239,0.606-0.507,1.198-0.801,1.777s-0.595,1.144-0.902,1.695s-0.613,1.083-0.917,1.594c-0.303,0.512-0.576,1.005-0.82,1.479
		c0.062-0.303,0.145-0.697,0.246-1.184c0.101-0.486,0.212-1.021,0.334-1.605c0.121-0.584,0.251-1.207,0.388-1.867
		c0.138-0.66,0.292-1.307,0.464-1.94c0.171-0.635,0.347-1.241,0.527-1.82s0.366-1.09,0.556-1.532s0.382-0.793,0.576-1.054
		c0.194-0.26,0.381-0.39,0.562-0.39c0.153,0,0.275,0.05,0.366,0.15c0.09,0.101,0.16,0.214,0.21,0.342s0.081,0.251,0.095,0.369
		s0.021,0.196,0.021,0.232C278.233,338.527,278.132,339.163,277.974,339.787z"/>
	<path fill="#FF3A1E" d="M290.749,360.221c0.533-0.127,1.048-0.296,1.545-0.507c0.496-0.211,0.971-0.452,1.422-0.725
		s0.872-0.55,1.265-0.831c0.902-0.657,1.754-1.412,2.557-2.267l-1.764-1.792c-0.355,0.339-0.789,0.698-1.299,1.076
		c-0.511,0.379-1.053,0.729-1.627,1.05c-0.574,0.32-1.165,0.588-1.771,0.802c-0.606,0.214-1.183,0.321-1.729,0.321
		c-0.174,0-0.337-0.018-0.487-0.054c-0.151-0.035-0.296-0.098-0.433-0.187c-0.137-0.09-0.272-0.214-0.404-0.375
		c-0.133-0.16-0.268-0.36-0.405-0.602c0.795-0.214,1.532-0.513,2.213-0.896c0.681-0.384,1.267-0.82,1.761-1.311
		c0.493-0.49,0.924-1.078,1.295-1.765c0.369-0.686,0.555-1.306,0.555-1.858c0-0.519-0.092-0.987-0.274-1.405
		c-0.183-0.419-0.436-0.776-0.759-1.072c-0.324-0.296-0.705-0.525-1.144-0.689c-0.438-0.164-0.912-0.246-1.423-0.246
		c-0.626,0-1.194,0.11-1.707,0.33c-0.513,0.221-0.975,0.518-1.387,0.891c-0.413,0.374-0.773,0.806-1.081,1.296
		c-0.309,0.49-0.564,1.005-0.769,1.545s-0.401,1.158-0.592,1.855s-0.285,1.298-0.285,1.802c0,0.77,0.106,1.505,0.318,2.205
		c0.213,0.701,0.532,1.317,0.958,1.852c0.426,0.533,0.957,0.957,1.596,1.272s1.383,0.474,2.234,0.474
		C289.675,360.411,290.216,360.348,290.749,360.221z M287.33,353.19c0.018-0.275,0.103-0.628,0.254-1.056
		c0.15-0.428,0.283-0.786,0.397-1.076s0.266-0.548,0.453-0.775s0.421-0.412,0.7-0.555c0.278-0.143,0.615-0.214,1.009-0.214
		c0.22,0,0.404,0.129,0.556,0.388c0.15,0.259,0.227,0.588,0.227,0.989c0,0.285-0.16,0.646-0.48,1.083s-0.647,0.784-0.981,1.042
		c-0.334,0.259-0.695,0.471-1.084,0.636s-0.748,0.247-1.077,0.247C287.303,353.703,287.312,353.467,287.33,353.19z"/>
	<path fill="#FF3A1E" d="M294.911,358.613c0.041,0.342,0.123,0.647,0.246,0.916s0.298,0.483,0.526,0.643
		c0.228,0.159,0.528,0.239,0.902,0.239c0.164,0,0.314-0.029,0.451-0.089s0.264-0.162,0.383-0.308
		c0.118-0.146,0.234-0.335,0.349-0.567c0.113-0.232,0.234-0.526,0.362-0.882l2.447-6.822h0.219c0.072,0.574,0.168,1.142,0.287,1.702
		c0.118,0.561,0.301,1.066,0.547,1.518s0.578,0.815,0.998,1.094c0.419,0.278,0.971,0.417,1.654,0.417
		c0.383,0,0.759-0.057,1.128-0.171s0.725-0.255,1.066-0.424s0.663-0.349,0.964-0.54s0.569-0.364,0.807-0.52l0.205-3.199
		c-0.41,0.337-0.83,0.638-1.258,0.902c-0.365,0.228-0.766,0.433-1.203,0.615s-0.861,0.273-1.271,0.273
		c-0.146,0-0.285-0.027-0.417-0.082c-0.133-0.055-0.251-0.148-0.355-0.28c-0.105-0.132-0.189-0.308-0.253-0.526
		c-0.064-0.219-0.096-0.492-0.096-0.82c0-0.191,0.022-0.431,0.068-0.718c0.045-0.287,0.118-0.654,0.219-1.101
		c0.1-0.446,0.173-0.809,0.219-1.087c0.045-0.278,0.068-0.494,0.068-0.649c0-0.2-0.037-0.381-0.109-0.54
		c-0.073-0.159-0.171-0.294-0.294-0.403s-0.267-0.193-0.431-0.253s-0.333-0.089-0.506-0.089c-0.502,0-0.943,0.135-1.326,0.403
		s-0.725,0.6-1.025,0.991s-0.588,0.884-0.861,1.477s-0.502,1.071-0.684,1.436h-0.15c-0.019-0.465-0.005-1.007,0.041-1.627
		c0.045-0.62,0.068-1.099,0.068-1.436c0-0.282-0.007-0.506-0.021-0.67s-0.053-0.289-0.116-0.376
		c-0.064-0.087-0.162-0.142-0.294-0.164c-0.133-0.022-0.317-0.034-0.554-0.034c-0.21,0-0.386,0.012-0.526,0.034
		c-0.142,0.022-0.26,0.068-0.355,0.137s-0.181,0.162-0.253,0.28c-0.073,0.118-0.146,0.278-0.219,0.479
		c-0.119,0.301-0.237,0.684-0.355,1.148c-0.119,0.465-0.26,1.046-0.424,1.743s-0.299,1.354-0.403,1.969
		c-0.105,0.615-0.196,1.219-0.273,1.812c-0.078,0.593-0.14,1.155-0.185,1.688c-0.046,0.533-0.068,1-0.068,1.401
		C294.85,357.918,294.87,358.271,294.911,358.613z"/>
	<path fill="#FF3A1E" d="M57.61,360.221c0.533-0.127,1.048-0.296,1.545-0.507s0.971-0.452,1.422-0.725s0.873-0.55,1.265-0.831
		c0.902-0.657,1.755-1.412,2.557-2.267l-1.764-1.792c-0.355,0.339-0.788,0.698-1.299,1.076c-0.511,0.379-1.053,0.729-1.627,1.05
		c-0.574,0.32-1.164,0.588-1.771,0.802s-1.183,0.321-1.729,0.321c-0.174,0-0.337-0.018-0.487-0.054
		c-0.15-0.035-0.295-0.098-0.433-0.187c-0.137-0.09-0.271-0.214-0.404-0.375c-0.133-0.16-0.268-0.36-0.405-0.602
		c0.795-0.214,1.532-0.513,2.213-0.896c0.681-0.384,1.268-0.82,1.761-1.311s0.925-1.078,1.295-1.765
		c0.37-0.686,0.555-1.306,0.555-1.858c0-0.519-0.092-0.987-0.273-1.405c-0.183-0.419-0.437-0.776-0.76-1.072
		c-0.324-0.296-0.705-0.525-1.143-0.689c-0.438-0.164-0.913-0.246-1.424-0.246c-0.626,0-1.194,0.11-1.707,0.33
		c-0.512,0.221-0.975,0.518-1.387,0.891c-0.412,0.374-0.772,0.806-1.081,1.296s-0.564,1.005-0.769,1.545s-0.4,1.158-0.591,1.855
		c-0.191,0.697-0.286,1.298-0.286,1.802c0,0.77,0.106,1.505,0.319,2.205c0.213,0.701,0.532,1.317,0.957,1.852
		c0.426,0.533,0.958,0.957,1.596,1.272c0.639,0.315,1.384,0.474,2.234,0.474C56.537,360.411,57.077,360.348,57.61,360.221z
		 M54.191,353.19c0.019-0.275,0.104-0.628,0.254-1.056c0.151-0.428,0.283-0.786,0.398-1.076c0.114-0.29,0.265-0.548,0.453-0.775
		c0.188-0.228,0.42-0.412,0.699-0.555s0.615-0.214,1.009-0.214c0.22,0,0.405,0.129,0.556,0.388c0.151,0.259,0.227,0.588,0.227,0.989
		c0,0.285-0.16,0.646-0.48,1.083s-0.647,0.784-0.981,1.042c-0.334,0.259-0.695,0.471-1.084,0.636s-0.748,0.247-1.077,0.247
		C54.164,353.703,54.173,353.467,54.191,353.19z"/>
	<path fill="#FF3A1E" d="M67.446,358.778c0.032,0.293,0.096,0.561,0.191,0.804s0.23,0.442,0.403,0.597
		c0.173,0.155,0.405,0.232,0.697,0.232c0.383,0,0.72-0.065,1.012-0.197c0.292-0.131,0.556-0.387,0.793-0.768l2.775-7.023h0.205
		c-0.073,0.663-0.13,1.318-0.171,1.967s-0.062,1.263-0.062,1.842c0,0.599,0.029,1.152,0.089,1.661
		c0.06,0.51,0.157,0.951,0.294,1.326s0.316,0.668,0.54,0.878c0.224,0.209,0.499,0.314,0.827,0.314c0.665,0,1.263-0.086,1.791-0.259
		s1.014-0.394,1.456-0.663c0.442-0.271,0.861-0.571,1.258-0.903c0.396-0.331,0.795-0.652,1.196-0.962l-0.232-3.241
		c-0.438,0.533-0.88,1.012-1.326,1.435c-0.191,0.185-0.392,0.361-0.602,0.532c-0.21,0.17-0.424,0.319-0.643,0.448
		s-0.433,0.234-0.643,0.317s-0.41,0.124-0.602,0.124c-0.183,0-0.337-0.156-0.465-0.47c-0.128-0.312-0.191-0.717-0.191-1.214
		c0-0.635,0.032-1.235,0.096-1.801s0.159-1.193,0.287-1.884c0.128-0.689,0.224-1.32,0.287-1.891s0.096-1.173,0.096-1.808
		c0-0.414-0.148-0.733-0.444-0.959s-0.658-0.338-1.087-0.338c-0.383,0-0.706,0.127-0.971,0.38s-0.528,0.563-0.793,0.931
		c-0.273,0.378-0.567,0.814-0.882,1.312s-0.61,0.971-0.889,1.421c-0.278,0.451-0.535,0.904-0.772,1.359s-0.364,0.697-0.383,0.725
		l-0.15-0.166c0-0.018,0.005-0.055,0.014-0.11c0.027-0.175,0.055-0.308,0.082-0.399c0.164-0.571,0.278-1.008,0.342-1.312
		c0.082-0.35,0.155-0.644,0.219-0.883c0.055-0.212,0.109-0.524,0.164-0.938c0.046-0.322,0.068-0.662,0.068-1.021
		c0-0.414-0.137-0.733-0.41-0.959s-0.602-0.338-0.984-0.338c-0.41,0-0.764,0.124-1.06,0.372c-0.296,0.249-0.576,0.562-0.841,0.938
		c-0.273,0.378-0.561,0.812-0.861,1.305s-0.581,0.964-0.841,1.414c-0.26,0.451-0.501,0.906-0.725,1.366s-0.344,0.704-0.362,0.731
		l-0.15-0.166c0.137-0.772,0.269-1.472,0.396-2.098c0.009-0.018,0.046-0.257,0.109-0.717c0.036-0.239,0.063-0.474,0.082-0.704
		c0.027-0.229,0.048-0.446,0.062-0.648s0.021-0.382,0.021-0.538c0-0.285-0.009-0.511-0.027-0.677
		c-0.019-0.165-0.075-0.292-0.171-0.379c-0.096-0.088-0.241-0.143-0.438-0.166c-0.196-0.022-0.467-0.034-0.813-0.034
		c-0.228,0-0.415,0.016-0.561,0.048s-0.271,0.097-0.376,0.193s-0.198,0.232-0.28,0.407s-0.169,0.409-0.26,0.704
		c-0.091,0.285-0.191,0.653-0.301,1.104c-0.109,0.451-0.217,0.948-0.321,1.49c-0.104,0.543-0.228,1.18-0.369,1.908
		c-0.142,0.729-0.248,1.379-0.321,1.948c-0.073,0.568-0.132,1.11-0.178,1.624s-0.068,0.959-0.068,1.335
		c0,0.354,0.021,0.696,0.062,1.028s0.123,0.628,0.246,0.889c0.123,0.262,0.299,0.47,0.526,0.624
		c0.228,0.155,0.528,0.232,0.902,0.232c0.292,0,0.559-0.064,0.8-0.192s0.453-0.374,0.636-0.736c0.629-1.23,1.142-2.27,1.538-3.117
		c0.396-0.849,0.723-1.539,0.978-2.071c0.255-0.531,0.453-0.936,0.595-1.21c0.142-0.275,0.267-0.481,0.376-0.619h0.205
		c-0.146,0.842-0.269,1.629-0.369,2.361c-0.046,0.312-0.091,0.625-0.137,0.94c-0.046,0.316-0.087,0.616-0.123,0.899
		c-0.036,0.284-0.063,0.536-0.082,0.755c-0.019,0.22-0.027,0.39-0.027,0.509C67.398,358.204,67.414,358.487,67.446,358.778z"/>
	<path fill="#FF3A1E" d="M83.6,349.22c0.638-0.771,1.278-1.594,1.921-2.466s1.224-1.765,1.743-2.678s0.941-1.828,1.265-2.746
		s0.485-1.808,0.485-2.671c0-0.62-0.036-1.203-0.109-1.75s-0.224-1.023-0.451-1.429s-0.552-0.727-0.971-0.964
		s-0.976-0.355-1.668-0.355c-0.62,0-1.196,0.251-1.729,0.752s-1.025,1.167-1.477,1.996s-0.861,1.775-1.23,2.837
		s-0.665,2.22-0.887,3.475c-0.223,1.254-0.407,2.3-0.556,3.136c-0.139,1.094-0.249,2.092-0.332,2.994
		c-0.166,0.802-0.342,2.063-0.526,3.786c-0.129,1.167-0.226,2.155-0.289,2.967c-0.082,0.93-0.137,1.765-0.164,2.503
		c0.483,0.355,0.985,0.702,1.506,1.039c0.283,0.173,0.972,0.41,2.067,0.711c0.119,0.036,0.891,0.055,2.314,0.055h0.342
		c0.347-0.137,0.671-0.278,0.973-0.424c0.265-0.128,0.531-0.269,0.801-0.424s0.481-0.31,0.637-0.465
		c0.638-0.146,1.242-0.312,1.812-0.494c0.569-0.184,1.116-0.4,1.641-0.652s1.034-0.547,1.531-0.886s0.996-0.737,1.497-1.195
		l-1.053-2.272c-0.364,0.368-0.72,0.687-1.066,0.958c-0.347,0.271-0.69,0.517-1.032,0.736c-0.342,0.221-0.682,0.423-1.019,0.606
		s-0.67,0.371-0.998,0.564c0.273-0.423,0.494-0.831,0.663-1.226c0.169-0.396,0.301-0.792,0.396-1.191s0.162-0.809,0.198-1.226
		c0.036-0.418,0.055-0.861,0.055-1.33c0-0.55-0.077-1.077-0.232-1.582c-0.155-0.504-0.378-0.951-0.67-1.338
		c-0.292-0.388-0.647-0.699-1.066-0.934s-0.897-0.352-1.436-0.352c-0.419,0-0.841,0.19-1.265,0.571
		c-0.424,0.38-0.891,0.884-1.401,1.511L83.6,349.22z M85.93,350.493c0.232,0.097,0.415,0.223,0.548,0.379
		c0.132,0.156,0.224,0.337,0.273,0.544c0.05,0.206,0.075,0.425,0.075,0.654c0,0.349-0.022,0.732-0.068,1.15
		c-0.046,0.417-0.114,0.84-0.205,1.267s-0.21,0.838-0.355,1.232c-0.146,0.396-0.319,0.746-0.52,1.054s-0.429,0.554-0.684,0.737
		s-0.538,0.275-0.848,0.275c-0.265,0-0.542,0.022-0.834,0.068s-0.569,0.041-0.834-0.014c-0.301-0.063-0.602-0.142-0.902-0.232
		c0.034-0.321,0.074-0.665,0.119-1.032c0.033-0.316,0.075-0.678,0.125-1.085c0.127-1.077,0.19-1.625,0.19-1.643
		c-0.101-0.194,0.055-0.723,0.465-1.583c0.21-0.444,0.451-0.809,0.726-1.091c0.273-0.282,0.569-0.49,0.889-0.625
		c0.319-0.134,0.639-0.201,0.958-0.201C85.403,350.349,85.697,350.396,85.93,350.493z M86.083,339.787
		c-0.158,0.624-0.357,1.239-0.597,1.846c-0.24,0.606-0.507,1.198-0.801,1.777c-0.295,0.579-0.596,1.144-0.903,1.695
		s-0.613,1.083-0.916,1.594c-0.304,0.512-0.577,1.005-0.821,1.479c0.062-0.303,0.145-0.697,0.246-1.184
		c0.101-0.486,0.212-1.021,0.334-1.605c0.121-0.584,0.251-1.207,0.388-1.867c0.138-0.66,0.292-1.307,0.464-1.94
		c0.172-0.635,0.348-1.241,0.528-1.82s0.365-1.09,0.555-1.532c0.19-0.442,0.382-0.793,0.576-1.054c0.194-0.26,0.382-0.39,0.562-0.39
		c0.153,0,0.275,0.05,0.365,0.15s0.16,0.214,0.21,0.342s0.081,0.251,0.095,0.369s0.021,0.196,0.021,0.232
		C86.344,338.527,86.241,339.163,86.083,339.787z"/>
	<path fill="#FF3A1E" d="M98.858,360.221c0.533-0.127,1.048-0.296,1.545-0.507s0.971-0.452,1.422-0.725s0.873-0.55,1.265-0.831
		c0.902-0.657,1.755-1.412,2.557-2.267l-1.764-1.792c-0.355,0.339-0.788,0.698-1.299,1.076c-0.511,0.379-1.053,0.729-1.627,1.05
		c-0.574,0.32-1.164,0.588-1.771,0.802s-1.183,0.321-1.729,0.321c-0.174,0-0.336-0.018-0.487-0.054
		c-0.15-0.035-0.295-0.098-0.433-0.187c-0.137-0.09-0.271-0.214-0.404-0.375c-0.133-0.16-0.268-0.36-0.405-0.602
		c0.795-0.214,1.532-0.513,2.213-0.896c0.681-0.384,1.268-0.82,1.761-1.311s0.925-1.078,1.295-1.765
		c0.37-0.686,0.555-1.306,0.555-1.858c0-0.519-0.092-0.987-0.273-1.405c-0.183-0.419-0.437-0.776-0.76-1.072
		c-0.324-0.296-0.705-0.525-1.144-0.689c-0.438-0.164-0.912-0.246-1.423-0.246c-0.625,0-1.194,0.11-1.707,0.33
		c-0.512,0.221-0.975,0.518-1.387,0.891c-0.412,0.374-0.772,0.806-1.081,1.296s-0.564,1.005-0.769,1.545s-0.4,1.158-0.591,1.855
		s-0.286,1.298-0.286,1.802c0,0.77,0.106,1.505,0.319,2.205c0.213,0.701,0.532,1.317,0.957,1.852
		c0.426,0.533,0.958,0.957,1.596,1.272c0.639,0.315,1.384,0.474,2.234,0.474C97.785,360.411,98.325,360.348,98.858,360.221z
		 M95.439,353.19c0.019-0.275,0.104-0.628,0.254-1.056c0.151-0.428,0.283-0.786,0.398-1.076c0.114-0.29,0.265-0.548,0.453-0.775
		c0.188-0.228,0.42-0.412,0.699-0.555s0.615-0.214,1.009-0.214c0.22,0,0.405,0.129,0.556,0.388c0.151,0.259,0.227,0.588,0.227,0.989
		c0,0.285-0.16,0.646-0.48,1.083s-0.647,0.784-0.981,1.042c-0.334,0.259-0.695,0.471-1.084,0.636s-0.747,0.247-1.077,0.247
		C95.412,353.703,95.421,353.467,95.439,353.19z"/>
	<path fill="#FF3A1E" d="M103.021,358.613c0.041,0.342,0.123,0.647,0.246,0.916s0.299,0.483,0.526,0.643s0.528,0.239,0.902,0.239
		c0.164,0,0.314-0.029,0.451-0.089s0.265-0.162,0.383-0.308s0.234-0.335,0.349-0.567s0.234-0.526,0.362-0.882l2.447-6.822h0.219
		c0.073,0.574,0.169,1.142,0.287,1.702s0.301,1.066,0.547,1.518s0.579,0.815,0.998,1.094s0.971,0.417,1.654,0.417
		c0.383,0,0.759-0.057,1.128-0.171s0.725-0.255,1.066-0.424s0.663-0.349,0.964-0.54s0.569-0.364,0.807-0.52l0.205-3.199
		c-0.41,0.337-0.829,0.638-1.258,0.902c-0.364,0.228-0.766,0.433-1.203,0.615s-0.861,0.273-1.271,0.273
		c-0.146,0-0.285-0.027-0.417-0.082s-0.251-0.148-0.355-0.28s-0.189-0.308-0.253-0.526s-0.096-0.492-0.096-0.82
		c0-0.191,0.022-0.431,0.068-0.718s0.118-0.654,0.219-1.101s0.173-0.809,0.219-1.087s0.068-0.494,0.068-0.649
		c0-0.2-0.036-0.381-0.109-0.54s-0.171-0.294-0.294-0.403s-0.267-0.193-0.431-0.253s-0.333-0.089-0.506-0.089
		c-0.501,0-0.943,0.135-1.326,0.403s-0.725,0.6-1.025,0.991s-0.588,0.884-0.861,1.477s-0.501,1.071-0.684,1.436h-0.15
		c-0.019-0.465-0.005-1.007,0.041-1.627s0.068-1.099,0.068-1.436c0-0.282-0.007-0.506-0.021-0.67s-0.053-0.289-0.116-0.376
		s-0.162-0.142-0.294-0.164s-0.316-0.034-0.554-0.034c-0.21,0-0.385,0.012-0.526,0.034s-0.26,0.068-0.355,0.137
		s-0.18,0.162-0.253,0.28s-0.146,0.278-0.219,0.479c-0.118,0.301-0.237,0.684-0.355,1.148s-0.26,1.046-0.424,1.743
		s-0.299,1.354-0.403,1.969s-0.196,1.219-0.273,1.812s-0.139,1.155-0.185,1.688s-0.068,1-0.068,1.401
		C102.959,357.918,102.979,358.271,103.021,358.613z"/>
</g>
<g id="Layer_6" opacity="0.25">
	<path fill-rule="evenodd" clip-rule="evenodd" fill="#71E3FF" d="M17.634,266.979h133.715c4.796,0,8.683,3.887,8.683,8.683v32.683
		c0,4.795-3.887,8.683-8.683,8.683H17.634c-4.796,0-8.683-3.888-8.683-8.683v-32.683C8.951,270.866,12.838,266.979,17.634,266.979z"
		/>
	<path fill-rule="evenodd" clip-rule="evenodd" fill="#71E3FF" d="M208.655,266.979h133.716c4.795,0,8.683,3.887,8.683,8.683v32.683
		c0,4.795-3.888,8.683-8.683,8.683H208.655c-4.795,0-8.683-3.888-8.683-8.683v-32.683
		C199.973,270.866,203.86,266.979,208.655,266.979z"/>
</g>
<g id="Layer_5">
	<path opacity="0.15" fill-rule="evenodd" clip-rule="evenodd" fill="#06CB06" d="M208.655,176.99h133.716
		c4.795,0,8.683,3.888,8.683,8.683v32.683c0,4.796-3.888,8.683-8.683,8.683H208.655c-4.795,0-8.683-3.887-8.683-8.683v-32.683
		C199.973,180.878,203.86,176.99,208.655,176.99z"/>
	<path opacity="0.15" fill-rule="evenodd" clip-rule="evenodd" fill="#06CB06" d="M17.634,177.053h133.715
		c4.796,0,8.683,3.888,8.683,8.683v32.62c0,4.796-3.887,8.683-8.683,8.683H17.634c-4.796,0-8.683-3.887-8.683-8.683v-32.62
		C8.951,180.94,12.838,177.053,17.634,177.053z"/>
</g>
<g id="Layer_4">
	<path fill="#FF3A1E" d="M241.309,113.312c-0.169,0.3-0.385,0.564-0.648,0.792s-0.549,0.42-0.855,0.576
		c-0.306,0.156-0.618,0.273-0.936,0.351c-0.318,0.078-0.615,0.117-0.891,0.117c-0.612,0-1.051-0.177-1.314-0.53
		s-0.396-0.782-0.396-1.285c0-0.407,0.078-0.842,0.234-1.303c0.156-0.461,0.375-0.896,0.657-1.303s0.621-0.764,1.017-1.069
		c0.396-0.305,0.834-0.512,1.314-0.62c-0.324-0.084-0.601-0.207-0.828-0.368c-0.229-0.162-0.417-0.351-0.567-0.566
		c-0.149-0.216-0.258-0.449-0.323-0.701c-0.066-0.251-0.1-0.509-0.1-0.773c0-0.311,0.045-0.62,0.135-0.925
		c0.091-0.305,0.217-0.578,0.379-0.817c0.161-0.24,0.356-0.431,0.584-0.575c0.229-0.144,0.475-0.216,0.738-0.216
		c0.24,0,0.465,0.075,0.676,0.224c0.209,0.149,0.314,0.408,0.314,0.777c0,0.155-0.021,0.316-0.062,0.483
		c-0.043,0.167-0.1,0.325-0.172,0.474c-0.071,0.149-0.155,0.277-0.252,0.384c-0.096,0.107-0.197,0.179-0.306,0.215
		c0.24,0.324,0.522,0.486,0.846,0.486c0.36,0,0.672-0.177,0.937-0.531c0.264-0.354,0.396-0.801,0.396-1.341
		c0-0.372-0.065-0.696-0.198-0.972c-0.132-0.276-0.314-0.51-0.549-0.702c-0.233-0.192-0.507-0.336-0.818-0.432
		c-0.312-0.096-0.648-0.144-1.008-0.144c-0.576,0-1.104,0.114-1.584,0.342c-0.48,0.228-0.897,0.528-1.252,0.9
		c-0.354,0.372-0.627,0.786-0.818,1.242c-0.192,0.457-0.288,0.918-0.288,1.386c0,0.408,0.087,0.801,0.261,1.179
		s0.453,0.705,0.837,0.981c-0.516,0.132-0.98,0.36-1.395,0.684c-0.414,0.324-0.766,0.702-1.054,1.134
		c-0.287,0.432-0.507,0.897-0.656,1.395c-0.15,0.498-0.226,0.981-0.226,1.449c0,0.42,0.063,0.822,0.189,1.206
		c0.126,0.384,0.324,0.72,0.594,1.008c0.271,0.288,0.615,0.519,1.035,0.693s0.918,0.261,1.494,0.261c0.54,0,1.073-0.079,1.602-0.234
		s1.026-0.378,1.494-0.666c0.468-0.288,0.888-0.642,1.26-1.062c0.372-0.42,0.678-0.894,0.918-1.422L241.309,113.312z"/>
	<path fill="#FF3A1E" d="M250.794,111.07c-0.084,0.402-0.177,0.813-0.279,1.233c-0.102,0.42-0.195,0.837-0.278,1.251
		c-0.085,0.414-0.127,0.771-0.127,1.071c0,0.252,0.036,0.501,0.108,0.747c0.072,0.246,0.192,0.465,0.36,0.657
		s0.387,0.345,0.656,0.459c0.271,0.114,0.604,0.171,1,0.171c0.239,0,0.5-0.036,0.782-0.108s0.573-0.222,0.873-0.45
		s0.595-0.561,0.882-0.999c0.288-0.438,0.559-1.029,0.811-1.773h-0.756c-0.097,0.24-0.192,0.457-0.288,0.648
		c-0.097,0.192-0.201,0.357-0.315,0.495c-0.114,0.138-0.246,0.246-0.396,0.324c-0.15,0.078-0.321,0.117-0.514,0.117
		c-0.275,0-0.465-0.069-0.566-0.207c-0.103-0.138-0.153-0.321-0.153-0.549c0-0.252,0.045-0.567,0.135-0.945s0.189-0.78,0.297-1.206
		c0.108-0.426,0.207-0.858,0.298-1.296c0.09-0.438,0.135-0.837,0.135-1.197c0-0.72-0.189-1.239-0.567-1.557
		c-0.378-0.317-0.854-0.477-1.431-0.477c-0.168,0-0.351,0.018-0.549,0.054s-0.408,0.108-0.63,0.216
		c-0.223,0.108-0.447,0.261-0.676,0.459c-0.228,0.198-0.449,0.465-0.666,0.801c-0.119-0.6-0.345-1.008-0.675-1.224
		c-0.33-0.216-0.717-0.324-1.161-0.324c-0.312,0-0.66,0.063-1.044,0.189s-0.768,0.405-1.151,0.837l0.197-0.936h-2.592l-1.908,9
		h2.593l1.224-5.778c0.132-0.456,0.321-0.849,0.567-1.179c0.245-0.33,0.542-0.495,0.891-0.495c0.204,0,0.345,0.081,0.423,0.243
		s0.117,0.345,0.117,0.549c0,0.156-0.018,0.306-0.054,0.45l-1.314,6.21h2.592l1.225-5.778c0.132-0.456,0.317-0.846,0.558-1.17
		c0.24-0.324,0.522-0.486,0.846-0.486c0.433,0,0.648,0.306,0.648,0.918C250.92,110.323,250.878,110.668,250.794,111.07z"/>
	<path fill="#FF3A1E" d="M254.826,113.329c-0.084,0.349-0.126,0.69-0.126,1.026c0,0.72,0.213,1.284,0.639,1.692
		c0.426,0.408,1.053,0.612,1.881,0.612c0.636,0,1.2-0.102,1.692-0.306c0.492-0.204,0.921-0.471,1.287-0.801
		c0.365-0.33,0.672-0.711,0.918-1.143c0.245-0.432,0.446-0.873,0.603-1.323c0.156-0.45,0.267-0.894,0.333-1.332s0.1-0.831,0.1-1.179
		c0-0.576-0.052-1.062-0.153-1.458c-0.103-0.396-0.246-0.717-0.433-0.963c-0.186-0.246-0.411-0.423-0.675-0.531
		c-0.264-0.108-0.552-0.162-0.864-0.162c-0.18,0-0.377,0.033-0.594,0.099c-0.216,0.066-0.51,0.213-0.882,0.441l0.864-4.05
		l-2.664,0.36L254.826,113.329z M260.172,111.988c-0.108,0.522-0.258,0.999-0.45,1.431s-0.417,0.789-0.675,1.071
		c-0.258,0.282-0.531,0.423-0.819,0.423c-0.636,0-0.954-0.276-0.954-0.828c0-0.132,0.019-0.27,0.055-0.414l0.99-4.572
		c0.047-0.06,0.119-0.111,0.216-0.153c0.096-0.042,0.194-0.075,0.297-0.099c0.102-0.024,0.204-0.042,0.306-0.054
		s0.183-0.018,0.243-0.018c0.155,0,0.294,0.048,0.414,0.144s0.222,0.225,0.306,0.387c0.084,0.162,0.145,0.348,0.181,0.558
		s0.054,0.423,0.054,0.639C260.334,110.971,260.28,111.466,260.172,111.988z"/>
	<path fill="#FF3A1E" d="M265.274,113.293c0.006-0.12,0.015-0.246,0.026-0.378c0.538-0.036,1.055-0.153,1.551-0.351
		c0.496-0.198,0.935-0.462,1.317-0.792c0.382-0.33,0.687-0.717,0.914-1.161c0.227-0.444,0.341-0.918,0.341-1.422
		c0-0.228-0.027-0.444-0.081-0.648s-0.156-0.387-0.306-0.549c-0.15-0.162-0.354-0.291-0.612-0.387
		c-0.259-0.096-0.585-0.144-0.981-0.144c-0.611,0-1.158,0.108-1.638,0.324c-0.48,0.216-0.9,0.504-1.26,0.864
		c-0.36,0.36-0.666,0.765-0.918,1.215s-0.453,0.909-0.604,1.377c-0.15,0.468-0.261,0.924-0.333,1.368s-0.107,0.84-0.107,1.188
		c0,1.02,0.256,1.752,0.77,2.196c0.514,0.444,1.199,0.666,2.056,0.666c0.601,0,1.146-0.096,1.639-0.288
		c0.491-0.191,0.941-0.443,1.35-0.756c0.408-0.312,0.774-0.666,1.099-1.062c0.323-0.396,0.611-0.804,0.863-1.224h-0.611
		c-0.229,0.252-0.457,0.489-0.685,0.711c-0.228,0.223-0.468,0.414-0.72,0.576s-0.522,0.291-0.811,0.387
		c-0.287,0.096-0.611,0.144-0.972,0.144c-0.432,0-0.756-0.099-0.972-0.297c-0.217-0.198-0.324-0.603-0.324-1.215
		C265.266,113.527,265.269,113.414,265.274,113.293z M267.83,110.216c-0.138,0.34-0.326,0.642-0.566,0.904s-0.52,0.478-0.837,0.645
		c-0.318,0.167-0.651,0.263-0.999,0.286c0.096-0.441,0.219-0.877,0.369-1.307c0.149-0.43,0.32-0.815,0.513-1.155
		c0.191-0.34,0.396-0.618,0.612-0.833c0.216-0.215,0.438-0.323,0.666-0.323c0.168,0,0.284,0.066,0.351,0.197
		c0.065,0.131,0.099,0.311,0.099,0.537C268.037,109.526,267.969,109.875,267.83,110.216z"/>
	<path fill="#FF3A1E" d="M270.953,107.551l-1.908,9h2.593l1.439-6.84c0.24-0.216,0.462-0.39,0.666-0.522s0.42-0.198,0.648-0.198
		c0.132,0,0.213,0.061,0.243,0.18c0.029,0.12,0.062,0.249,0.099,0.387c0.036,0.138,0.099,0.268,0.188,0.387
		c0.091,0.12,0.262,0.18,0.514,0.18c0.216,0,0.404-0.039,0.566-0.117c0.162-0.078,0.297-0.18,0.405-0.306s0.189-0.267,0.243-0.423
		c0.054-0.156,0.081-0.312,0.081-0.468c0-0.348-0.105-0.66-0.315-0.936s-0.519-0.414-0.927-0.414c-0.36,0-0.729,0.12-1.106,0.36
		c-0.379,0.24-0.741,0.528-1.09,0.864l0.252-1.134H270.953z"/>
	<path fill="#FF3A1E" d="M284.643,104.042c-0.223-0.288-0.489-0.504-0.802-0.648c-0.312-0.145-0.63-0.237-0.954-0.279
		c-0.323-0.042-0.594-0.063-0.81-0.063c-0.576,0-1.119,0.081-1.629,0.243c-0.511,0.162-0.951,0.384-1.323,0.666
		s-0.666,0.621-0.882,1.017c-0.216,0.396-0.324,0.828-0.324,1.296c0,0.444,0.09,0.849,0.271,1.215
		c0.18,0.366,0.407,0.714,0.684,1.044s0.573,0.66,0.891,0.99c0.318,0.33,0.615,0.672,0.892,1.026
		c0.275,0.354,0.504,0.738,0.684,1.152c0.181,0.414,0.271,0.879,0.271,1.395c0,0.756-0.192,1.335-0.576,1.737
		c-0.385,0.402-0.882,0.604-1.494,0.604c-0.576,0-1.017-0.156-1.323-0.468c-0.306-0.312-0.459-0.696-0.459-1.152
		c0-0.312,0.066-0.579,0.198-0.801c0.132-0.222,0.3-0.402,0.504-0.54c0.204-0.138,0.432-0.24,0.685-0.306
		c0.252-0.066,0.504-0.099,0.756-0.099c-0.036-0.228-0.108-0.42-0.216-0.576c-0.108-0.156-0.237-0.279-0.388-0.369
		c-0.149-0.09-0.312-0.153-0.485-0.188c-0.175-0.036-0.34-0.054-0.495-0.054c-0.312,0-0.628,0.063-0.945,0.189
		c-0.318,0.126-0.603,0.312-0.854,0.558s-0.457,0.555-0.612,0.927c-0.156,0.372-0.234,0.798-0.234,1.278
		c0,0.552,0.103,1.02,0.307,1.404c0.203,0.384,0.479,0.699,0.827,0.945c0.349,0.246,0.753,0.423,1.216,0.531
		c0.462,0.108,0.95,0.162,1.467,0.162c0.647,0,1.278-0.09,1.89-0.27c0.612-0.18,1.152-0.453,1.62-0.819
		c0.468-0.366,0.843-0.828,1.125-1.386s0.423-1.215,0.423-1.971c0-0.648-0.099-1.206-0.297-1.674
		c-0.198-0.468-0.447-0.885-0.747-1.251s-0.627-0.696-0.98-0.99c-0.354-0.294-0.682-0.587-0.981-0.882
		c-0.3-0.294-0.549-0.606-0.747-0.936s-0.297-0.717-0.297-1.161c0-0.54,0.149-0.945,0.45-1.215c0.3-0.27,0.702-0.405,1.206-0.405
		s0.852,0.12,1.044,0.36c0.191,0.24,0.288,0.516,0.288,0.828c0,0.3-0.075,0.597-0.226,0.891c-0.15,0.294-0.345,0.513-0.585,0.657
		c0.216,0.252,0.492,0.378,0.828,0.378c0.456,0,0.816-0.171,1.08-0.513c0.264-0.342,0.396-0.777,0.396-1.305
		C284.976,104.719,284.864,104.329,284.643,104.042z"/>
	<path fill="#FF3A1E" d="M290.519,111.07c-0.084,0.402-0.177,0.813-0.278,1.233c-0.103,0.42-0.195,0.837-0.279,1.251
		s-0.126,0.771-0.126,1.071c0,0.252,0.036,0.501,0.108,0.747c0.071,0.246,0.191,0.465,0.359,0.657s0.387,0.345,0.657,0.459
		s0.603,0.171,0.999,0.171c0.24,0,0.501-0.036,0.783-0.108c0.281-0.072,0.572-0.222,0.873-0.45c0.3-0.228,0.594-0.561,0.882-0.999
		s0.558-1.029,0.81-1.773h-0.756c-0.096,0.24-0.191,0.457-0.288,0.648c-0.096,0.192-0.201,0.357-0.314,0.495
		c-0.114,0.138-0.246,0.246-0.396,0.324s-0.321,0.117-0.513,0.117c-0.276,0-0.465-0.069-0.567-0.207
		c-0.102-0.138-0.152-0.321-0.152-0.549c0-0.252,0.045-0.567,0.135-0.945s0.188-0.78,0.297-1.206
		c0.108-0.426,0.207-0.858,0.297-1.296s0.135-0.837,0.135-1.197c0-0.72-0.188-1.239-0.566-1.557
		c-0.378-0.317-0.855-0.477-1.432-0.477c-0.275,0-0.6,0.06-0.972,0.18c-0.372,0.12-0.75,0.396-1.134,0.828l0.972-4.536l-2.664,0.36
		l-2.609,12.24h2.592l1.224-5.778c0.132-0.456,0.318-0.846,0.559-1.17c0.239-0.324,0.521-0.486,0.846-0.486
		c0.432,0,0.647,0.306,0.647,0.918C290.645,110.323,290.603,110.668,290.519,111.07z"/>
	<path fill="#FF3A1E" d="M300.599,107.551l-0.18,0.846c-0.036-0.204-0.105-0.369-0.207-0.495c-0.103-0.126-0.223-0.222-0.36-0.288
		c-0.138-0.066-0.288-0.108-0.45-0.126c-0.161-0.018-0.314-0.027-0.459-0.027c-0.528,0-1.005,0.099-1.431,0.297
		s-0.812,0.462-1.161,0.792c-0.348,0.33-0.647,0.711-0.899,1.143s-0.463,0.882-0.631,1.35c-0.168,0.468-0.294,0.936-0.378,1.404
		s-0.126,0.906-0.126,1.314c0,0.54,0.066,0.993,0.198,1.359c0.132,0.366,0.312,0.664,0.54,0.891
		c0.228,0.228,0.483,0.393,0.766,0.495c0.281,0.102,0.578,0.153,0.891,0.153c0.324,0,0.617-0.048,0.882-0.144
		c0.264-0.096,0.507-0.222,0.729-0.378c0.222-0.156,0.423-0.335,0.603-0.54c0.18-0.204,0.336-0.408,0.468-0.612
		c0.072,0.516,0.262,0.906,0.567,1.17c0.306,0.264,0.704,0.396,1.196,0.396c0.24,0,0.517-0.03,0.828-0.09
		c0.312-0.06,0.633-0.201,0.963-0.423c0.33-0.222,0.654-0.546,0.973-0.972c0.317-0.426,0.603-1.005,0.854-1.737h-0.756
		c-0.132,0.457-0.321,0.834-0.566,1.134c-0.246,0.3-0.544,0.45-0.892,0.45c-0.252,0-0.438-0.048-0.558-0.144
		c-0.12-0.096-0.181-0.271-0.181-0.522c0-0.18,0.024-0.372,0.072-0.576l1.314-6.12H300.599z M299.87,108.658
		c0.09,0.054,0.161,0.117,0.216,0.189c0.054,0.072,0.096,0.147,0.126,0.225c0.029,0.078,0.045,0.141,0.045,0.189l-0.864,4.068
		c-0.061,0.264-0.144,0.495-0.252,0.693c-0.107,0.198-0.234,0.363-0.378,0.495c-0.144,0.132-0.291,0.231-0.44,0.297
		c-0.15,0.066-0.292,0.099-0.424,0.099c-0.084,0-0.177-0.009-0.278-0.027c-0.103-0.018-0.198-0.072-0.288-0.162
		c-0.09-0.09-0.168-0.228-0.234-0.414s-0.099-0.453-0.099-0.801c0-0.42,0.06-0.915,0.18-1.485s0.288-1.11,0.504-1.62
		c0.216-0.51,0.479-0.942,0.792-1.296s0.66-0.531,1.044-0.531C299.663,108.577,299.779,108.604,299.87,108.658z"/>
	<path fill="#FF3A1E" d="M305.242,107.551l-1.908,9h2.593l1.439-6.84c0.24-0.216,0.462-0.39,0.666-0.522s0.42-0.198,0.648-0.198
		c0.132,0,0.213,0.061,0.243,0.18c0.029,0.12,0.062,0.249,0.099,0.387c0.036,0.138,0.099,0.268,0.188,0.387
		c0.091,0.12,0.262,0.18,0.514,0.18c0.216,0,0.405-0.039,0.566-0.117c0.162-0.078,0.298-0.18,0.405-0.306
		c0.108-0.126,0.189-0.267,0.243-0.423c0.054-0.156,0.081-0.312,0.081-0.468c0-0.348-0.105-0.66-0.315-0.936
		s-0.519-0.414-0.927-0.414c-0.36,0-0.729,0.12-1.106,0.36c-0.379,0.24-0.741,0.528-1.09,0.864l0.252-1.134H305.242z"/>
	<path fill="#FF3A1E" d="M314.803,112.564c0.495-0.198,0.935-0.462,1.316-0.792c0.383-0.33,0.688-0.714,0.915-1.152
		c0.227-0.438,0.34-0.915,0.34-1.431c0-0.228-0.026-0.444-0.081-0.648c-0.054-0.204-0.155-0.387-0.306-0.549
		s-0.354-0.291-0.612-0.387s-0.585-0.144-0.98-0.144c-0.612,0-1.158,0.108-1.639,0.324c-0.479,0.216-0.899,0.504-1.26,0.864
		c-0.359,0.36-0.666,0.765-0.918,1.215s-0.453,0.909-0.603,1.377c-0.15,0.468-0.261,0.924-0.333,1.368s-0.108,0.84-0.108,1.188
		c0,1.02,0.255,1.752,0.765,2.196c0.511,0.444,1.186,0.666,2.025,0.666c0.36,0,0.708-0.042,1.044-0.126s0.642-0.228,0.918-0.432
		s0.513-0.478,0.711-0.819s0.345-0.771,0.441-1.287c-0.286,0.252-0.624,0.475-1.012,0.666c-0.388,0.192-0.755,0.288-1.101,0.288
		c-0.227,0-0.412-0.042-0.555-0.126c-0.144-0.084-0.257-0.198-0.341-0.342c-0.083-0.144-0.14-0.303-0.17-0.477
		c-0.029-0.174-0.044-0.351-0.044-0.531c0-0.096,0.002-0.189,0.009-0.279c0.006-0.09,0.015-0.183,0.026-0.279
		C313.79,112.879,314.307,112.762,314.803,112.564z M315.772,110.233c-0.144,0.34-0.336,0.642-0.576,0.904s-0.52,0.478-0.837,0.645
		c-0.318,0.167-0.651,0.257-0.999,0.269c0.096-0.418,0.222-0.842,0.378-1.271s0.33-0.818,0.522-1.165
		c0.191-0.346,0.396-0.629,0.611-0.851c0.216-0.221,0.438-0.332,0.666-0.332c0.168,0,0.285,0.066,0.352,0.197
		c0.065,0.131,0.099,0.311,0.099,0.537C315.988,109.538,315.916,109.893,315.772,110.233z"/>
	<path fill="#FF3A1E" d="M50.286,113.312c-0.168,0.3-0.384,0.564-0.648,0.792c-0.264,0.228-0.549,0.42-0.854,0.576
		c-0.307,0.156-0.618,0.273-0.937,0.351c-0.317,0.078-0.614,0.117-0.891,0.117c-0.612,0-1.05-0.177-1.313-0.53
		c-0.265-0.354-0.396-0.782-0.396-1.285c0-0.407,0.078-0.842,0.234-1.303c0.155-0.461,0.375-0.896,0.656-1.303
		c0.282-0.407,0.621-0.764,1.018-1.069c0.396-0.305,0.834-0.512,1.313-0.62c-0.323-0.084-0.6-0.207-0.828-0.368
		c-0.228-0.162-0.417-0.351-0.566-0.566c-0.15-0.216-0.259-0.449-0.324-0.701c-0.066-0.251-0.099-0.509-0.099-0.773
		c0-0.311,0.045-0.62,0.135-0.925c0.09-0.305,0.216-0.578,0.378-0.817s0.356-0.431,0.585-0.575c0.228-0.144,0.474-0.216,0.738-0.216
		c0.239,0,0.465,0.075,0.675,0.224s0.315,0.408,0.315,0.777c0,0.155-0.021,0.316-0.063,0.483s-0.099,0.325-0.171,0.474
		s-0.156,0.277-0.252,0.384c-0.097,0.107-0.198,0.179-0.307,0.215c0.24,0.324,0.522,0.486,0.847,0.486
		c0.359,0,0.672-0.177,0.936-0.531s0.396-0.801,0.396-1.341c0-0.372-0.066-0.696-0.198-0.972s-0.315-0.51-0.549-0.702
		c-0.234-0.192-0.507-0.336-0.819-0.432c-0.312-0.096-0.647-0.144-1.008-0.144c-0.576,0-1.104,0.114-1.584,0.342
		c-0.48,0.228-0.897,0.528-1.251,0.9c-0.354,0.372-0.627,0.786-0.819,1.242c-0.191,0.457-0.288,0.918-0.288,1.386
		c0,0.408,0.087,0.801,0.262,1.179c0.174,0.378,0.452,0.705,0.837,0.981c-0.517,0.132-0.981,0.36-1.396,0.684
		c-0.414,0.324-0.765,0.702-1.053,1.134s-0.507,0.897-0.657,1.395c-0.15,0.498-0.225,0.981-0.225,1.449
		c0,0.42,0.062,0.822,0.188,1.206c0.126,0.384,0.324,0.72,0.595,1.008c0.27,0.288,0.614,0.519,1.034,0.693s0.918,0.261,1.494,0.261
		c0.54,0,1.074-0.079,1.603-0.234c0.527-0.156,1.025-0.378,1.494-0.666c0.468-0.288,0.888-0.642,1.26-1.062
		c0.372-0.42,0.678-0.894,0.918-1.422L50.286,113.312z"/>
	<path fill="#FF3A1E" d="M59.771,111.07c-0.084,0.402-0.177,0.813-0.278,1.233c-0.103,0.42-0.195,0.837-0.279,1.251
		s-0.126,0.771-0.126,1.071c0,0.252,0.036,0.501,0.108,0.747c0.071,0.246,0.191,0.465,0.359,0.657s0.388,0.345,0.657,0.459
		s0.603,0.171,0.999,0.171c0.24,0,0.501-0.036,0.783-0.108c0.281-0.072,0.572-0.222,0.873-0.45c0.3-0.228,0.594-0.561,0.882-0.999
		s0.558-1.029,0.81-1.773h-0.756c-0.096,0.24-0.192,0.457-0.288,0.648s-0.201,0.357-0.314,0.495
		c-0.114,0.138-0.246,0.246-0.396,0.324s-0.321,0.117-0.513,0.117c-0.276,0-0.466-0.069-0.567-0.207
		c-0.102-0.138-0.152-0.321-0.152-0.549c0-0.252,0.045-0.567,0.135-0.945s0.188-0.78,0.297-1.206
		c0.108-0.426,0.207-0.858,0.297-1.296s0.135-0.837,0.135-1.197c0-0.72-0.188-1.239-0.566-1.557
		c-0.378-0.317-0.855-0.477-1.432-0.477c-0.168,0-0.351,0.018-0.549,0.054s-0.408,0.108-0.63,0.216
		c-0.222,0.108-0.447,0.261-0.675,0.459c-0.229,0.198-0.45,0.465-0.666,0.801c-0.12-0.6-0.346-1.008-0.675-1.224
		c-0.33-0.216-0.718-0.324-1.161-0.324c-0.312,0-0.66,0.063-1.044,0.189c-0.385,0.126-0.769,0.405-1.152,0.837l0.198-0.936h-2.592
		l-1.908,9h2.592l1.225-5.778c0.132-0.456,0.32-0.849,0.566-1.179c0.246-0.33,0.543-0.495,0.891-0.495
		c0.204,0,0.346,0.081,0.424,0.243c0.077,0.162,0.116,0.345,0.116,0.549c0,0.156-0.018,0.306-0.054,0.45l-1.313,6.21h2.592
		l1.224-5.778c0.132-0.456,0.318-0.846,0.559-1.17c0.239-0.324,0.521-0.486,0.846-0.486c0.432,0,0.647,0.306,0.647,0.918
		C59.897,110.323,59.855,110.668,59.771,111.07z"/>
	<path fill="#FF3A1E" d="M63.804,113.329c-0.084,0.349-0.126,0.69-0.126,1.026c0,0.72,0.213,1.284,0.639,1.692
		c0.426,0.408,1.054,0.612,1.882,0.612c0.636,0,1.199-0.102,1.691-0.306c0.492-0.204,0.921-0.471,1.287-0.801
		c0.366-0.33,0.672-0.711,0.918-1.143c0.246-0.432,0.447-0.873,0.604-1.323c0.155-0.45,0.267-0.894,0.333-1.332
		c0.065-0.438,0.099-0.831,0.099-1.179c0-0.576-0.051-1.062-0.153-1.458c-0.102-0.396-0.246-0.717-0.432-0.963
		c-0.187-0.246-0.411-0.423-0.675-0.531c-0.265-0.108-0.553-0.162-0.864-0.162c-0.18,0-0.378,0.033-0.594,0.099
		s-0.511,0.213-0.882,0.441l0.863-4.05l-2.664,0.36L63.804,113.329z M69.15,111.988c-0.108,0.522-0.259,0.999-0.45,1.431
		c-0.192,0.432-0.417,0.789-0.675,1.071c-0.259,0.282-0.531,0.423-0.819,0.423c-0.637,0-0.954-0.276-0.954-0.828
		c0-0.132,0.018-0.27,0.054-0.414l0.99-4.572c0.048-0.06,0.12-0.111,0.216-0.153s0.195-0.075,0.297-0.099
		c0.103-0.024,0.204-0.042,0.307-0.054c0.102-0.012,0.183-0.018,0.242-0.018c0.156,0,0.294,0.048,0.414,0.144
		s0.223,0.225,0.307,0.387c0.084,0.162,0.144,0.348,0.18,0.558s0.054,0.423,0.054,0.639
		C69.312,110.971,69.258,111.466,69.15,111.988z"/>
	<path fill="#FF3A1E" d="M74.253,113.293c0.006-0.12,0.015-0.246,0.026-0.378c0.538-0.036,1.055-0.153,1.551-0.351
		c0.495-0.198,0.935-0.462,1.316-0.792c0.383-0.33,0.688-0.717,0.914-1.161c0.228-0.444,0.341-0.918,0.341-1.422
		c0-0.228-0.026-0.444-0.081-0.648c-0.054-0.204-0.156-0.387-0.306-0.549c-0.15-0.162-0.354-0.291-0.612-0.387
		s-0.585-0.144-0.98-0.144c-0.612,0-1.158,0.108-1.639,0.324c-0.479,0.216-0.899,0.504-1.26,0.864
		c-0.359,0.36-0.666,0.765-0.918,1.215s-0.453,0.909-0.603,1.377c-0.15,0.468-0.262,0.924-0.333,1.368
		c-0.072,0.444-0.108,0.84-0.108,1.188c0,1.02,0.257,1.752,0.771,2.196c0.514,0.444,1.198,0.666,2.056,0.666
		c0.6,0,1.146-0.096,1.638-0.288c0.492-0.191,0.942-0.443,1.351-0.756c0.407-0.312,0.773-0.666,1.098-1.062s0.612-0.804,0.864-1.224
		h-0.612c-0.229,0.252-0.456,0.489-0.684,0.711c-0.229,0.223-0.469,0.414-0.721,0.576s-0.521,0.291-0.81,0.387
		s-0.612,0.144-0.973,0.144c-0.432,0-0.756-0.099-0.972-0.297c-0.216-0.198-0.324-0.603-0.324-1.215
		C74.243,113.527,74.246,113.414,74.253,113.293z M76.809,110.216c-0.138,0.34-0.327,0.642-0.567,0.904s-0.519,0.478-0.837,0.645
		c-0.317,0.167-0.65,0.263-0.999,0.286c0.097-0.441,0.219-0.877,0.369-1.307s0.321-0.815,0.513-1.155
		c0.192-0.34,0.396-0.618,0.612-0.833s0.438-0.323,0.666-0.323c0.168,0,0.285,0.066,0.352,0.197
		c0.065,0.131,0.099,0.311,0.099,0.537C77.016,109.526,76.946,109.875,76.809,110.216z"/>
	<path fill="#FF3A1E" d="M79.932,107.551l-1.908,9h2.592l1.44-6.84c0.239-0.216,0.462-0.39,0.666-0.522s0.42-0.198,0.647-0.198
		c0.132,0,0.213,0.061,0.243,0.18c0.03,0.12,0.063,0.249,0.099,0.387c0.036,0.138,0.1,0.268,0.189,0.387
		c0.09,0.12,0.261,0.18,0.513,0.18c0.216,0,0.405-0.039,0.567-0.117c0.162-0.078,0.297-0.18,0.405-0.306
		c0.107-0.126,0.188-0.267,0.242-0.423c0.055-0.156,0.081-0.312,0.081-0.468c0-0.348-0.104-0.66-0.314-0.936
		s-0.52-0.414-0.927-0.414c-0.36,0-0.729,0.12-1.107,0.36c-0.378,0.24-0.741,0.528-1.089,0.864l0.252-1.134H79.932z"/>
	<path fill="#FF3A1E" d="M93.62,104.042c-0.222-0.288-0.489-0.504-0.801-0.648c-0.312-0.145-0.63-0.237-0.954-0.279
		s-0.594-0.063-0.811-0.063c-0.575,0-1.118,0.081-1.629,0.243c-0.51,0.162-0.951,0.384-1.322,0.666
		c-0.372,0.282-0.666,0.621-0.883,1.017c-0.216,0.396-0.323,0.828-0.323,1.296c0,0.444,0.09,0.849,0.27,1.215
		c0.181,0.366,0.408,0.714,0.685,1.044c0.275,0.33,0.572,0.66,0.891,0.99s0.615,0.672,0.891,1.026
		c0.276,0.354,0.504,0.738,0.685,1.152c0.18,0.414,0.27,0.879,0.27,1.395c0,0.756-0.191,1.335-0.576,1.737
		c-0.384,0.402-0.882,0.604-1.493,0.604c-0.576,0-1.018-0.156-1.323-0.468s-0.459-0.696-0.459-1.152
		c0-0.312,0.065-0.579,0.198-0.801c0.132-0.222,0.3-0.402,0.504-0.54c0.204-0.138,0.432-0.24,0.684-0.306s0.504-0.099,0.756-0.099
		c-0.036-0.228-0.107-0.42-0.216-0.576c-0.108-0.156-0.237-0.279-0.387-0.369c-0.15-0.09-0.312-0.153-0.486-0.188
		c-0.174-0.036-0.339-0.054-0.495-0.054c-0.312,0-0.627,0.063-0.944,0.189c-0.318,0.126-0.604,0.312-0.855,0.558
		s-0.456,0.555-0.612,0.927c-0.155,0.372-0.233,0.798-0.233,1.278c0,0.552,0.102,1.02,0.306,1.404
		c0.204,0.384,0.48,0.699,0.828,0.945c0.348,0.246,0.753,0.423,1.215,0.531s0.951,0.162,1.467,0.162c0.648,0,1.278-0.09,1.891-0.27
		c0.611-0.18,1.151-0.453,1.62-0.819c0.468-0.366,0.843-0.828,1.125-1.386c0.281-0.558,0.423-1.215,0.423-1.971
		c0-0.648-0.1-1.206-0.297-1.674c-0.198-0.468-0.447-0.885-0.747-1.251c-0.301-0.366-0.628-0.696-0.981-0.99
		c-0.354-0.294-0.681-0.587-0.98-0.882c-0.301-0.294-0.55-0.606-0.747-0.936c-0.198-0.33-0.298-0.717-0.298-1.161
		c0-0.54,0.15-0.945,0.45-1.215s0.702-0.405,1.206-0.405s0.853,0.12,1.044,0.36c0.192,0.24,0.288,0.516,0.288,0.828
		c0,0.3-0.075,0.597-0.225,0.891c-0.15,0.294-0.346,0.513-0.585,0.657c0.216,0.252,0.492,0.378,0.828,0.378
		c0.456,0,0.815-0.171,1.08-0.513c0.264-0.342,0.396-0.777,0.396-1.305C93.953,104.719,93.842,104.329,93.62,104.042z"/>
	<path fill="#FF3A1E" d="M99.497,111.07c-0.084,0.402-0.178,0.813-0.279,1.233c-0.102,0.42-0.195,0.837-0.278,1.251
		c-0.085,0.414-0.127,0.771-0.127,1.071c0,0.252,0.036,0.501,0.108,0.747c0.072,0.246,0.192,0.465,0.36,0.657
		s0.387,0.345,0.656,0.459c0.271,0.114,0.604,0.171,0.999,0.171c0.24,0,0.501-0.036,0.783-0.108s0.573-0.222,0.873-0.45
		s0.594-0.561,0.882-0.999s0.559-1.029,0.811-1.773h-0.756c-0.097,0.24-0.192,0.457-0.288,0.648
		c-0.097,0.192-0.201,0.357-0.315,0.495c-0.114,0.138-0.246,0.246-0.396,0.324c-0.15,0.078-0.321,0.117-0.514,0.117
		c-0.275,0-0.465-0.069-0.566-0.207c-0.103-0.138-0.153-0.321-0.153-0.549c0-0.252,0.045-0.567,0.135-0.945s0.189-0.78,0.297-1.206
		c0.108-0.426,0.207-0.858,0.298-1.296c0.09-0.438,0.135-0.837,0.135-1.197c0-0.72-0.189-1.239-0.567-1.557
		c-0.378-0.317-0.854-0.477-1.431-0.477c-0.276,0-0.601,0.06-0.972,0.18c-0.373,0.12-0.751,0.396-1.135,0.828l0.973-4.536
		l-2.664,0.36l-2.61,12.24h2.592l1.225-5.778c0.132-0.456,0.317-0.846,0.558-1.17c0.24-0.324,0.522-0.486,0.846-0.486
		c0.433,0,0.648,0.306,0.648,0.918C99.623,110.323,99.581,110.668,99.497,111.07z"/>
	<path fill="#FF3A1E" d="M109.577,107.551l-0.181,0.846c-0.036-0.204-0.104-0.369-0.207-0.495c-0.102-0.126-0.222-0.222-0.359-0.288
		c-0.139-0.066-0.288-0.108-0.45-0.126s-0.315-0.027-0.459-0.027c-0.528,0-1.005,0.099-1.431,0.297
		c-0.427,0.198-0.813,0.462-1.161,0.792c-0.349,0.33-0.648,0.711-0.9,1.143s-0.462,0.882-0.63,1.35
		c-0.168,0.468-0.294,0.936-0.378,1.404s-0.126,0.906-0.126,1.314c0,0.54,0.065,0.993,0.198,1.359
		c0.132,0.366,0.312,0.664,0.54,0.891c0.228,0.228,0.482,0.393,0.765,0.495c0.282,0.102,0.579,0.153,0.891,0.153
		c0.324,0,0.618-0.048,0.882-0.144c0.265-0.096,0.507-0.222,0.729-0.378c0.222-0.156,0.423-0.335,0.603-0.54
		c0.181-0.204,0.336-0.408,0.469-0.612c0.071,0.516,0.261,0.906,0.566,1.17c0.307,0.264,0.705,0.396,1.197,0.396
		c0.24,0,0.516-0.03,0.828-0.09c0.312-0.06,0.633-0.201,0.963-0.423c0.33-0.222,0.654-0.546,0.972-0.972
		c0.318-0.426,0.604-1.005,0.855-1.737h-0.756c-0.133,0.457-0.321,0.834-0.567,1.134s-0.543,0.45-0.891,0.45
		c-0.252,0-0.438-0.048-0.559-0.144c-0.12-0.096-0.18-0.271-0.18-0.522c0-0.18,0.023-0.372,0.072-0.576l1.313-6.12H109.577z
		 M108.848,108.658c0.09,0.054,0.162,0.117,0.216,0.189c0.055,0.072,0.097,0.147,0.126,0.225c0.03,0.078,0.045,0.141,0.045,0.189
		l-0.863,4.068c-0.061,0.264-0.145,0.495-0.252,0.693c-0.108,0.198-0.234,0.363-0.378,0.495c-0.145,0.132-0.292,0.231-0.441,0.297
		c-0.15,0.066-0.291,0.099-0.423,0.099c-0.084,0-0.178-0.009-0.279-0.027s-0.198-0.072-0.288-0.162
		c-0.09-0.09-0.168-0.228-0.233-0.414c-0.066-0.186-0.1-0.453-0.1-0.801c0-0.42,0.061-0.915,0.181-1.485
		c0.119-0.57,0.287-1.11,0.504-1.62c0.216-0.51,0.479-0.942,0.792-1.296c0.312-0.354,0.659-0.531,1.044-0.531
		C108.641,108.577,108.758,108.604,108.848,108.658z"/>
	<path fill="#FF3A1E" d="M114.221,107.551l-1.908,9h2.592l1.44-6.84c0.239-0.216,0.462-0.39,0.666-0.522s0.42-0.198,0.647-0.198
		c0.132,0,0.213,0.061,0.243,0.18c0.03,0.12,0.063,0.249,0.099,0.387c0.036,0.138,0.1,0.268,0.189,0.387
		c0.09,0.12,0.261,0.18,0.513,0.18c0.216,0,0.405-0.039,0.567-0.117c0.162-0.078,0.297-0.18,0.405-0.306
		c0.107-0.126,0.188-0.267,0.243-0.423c0.054-0.156,0.08-0.312,0.08-0.468c0-0.348-0.104-0.66-0.314-0.936s-0.52-0.414-0.927-0.414
		c-0.36,0-0.729,0.12-1.107,0.36c-0.378,0.24-0.741,0.528-1.089,0.864l0.252-1.134H114.221z"/>
	<path fill="#FF3A1E" d="M123.78,112.564c0.496-0.198,0.935-0.462,1.317-0.792s0.687-0.714,0.914-1.152
		c0.227-0.438,0.341-0.915,0.341-1.431c0-0.228-0.027-0.444-0.081-0.648s-0.156-0.387-0.306-0.549
		c-0.15-0.162-0.354-0.291-0.612-0.387c-0.259-0.096-0.585-0.144-0.981-0.144c-0.611,0-1.158,0.108-1.638,0.324
		c-0.48,0.216-0.9,0.504-1.26,0.864c-0.36,0.36-0.666,0.765-0.918,1.215s-0.453,0.909-0.604,1.377
		c-0.15,0.468-0.261,0.924-0.333,1.368c-0.071,0.444-0.107,0.84-0.107,1.188c0,1.02,0.255,1.752,0.765,2.196
		c0.51,0.444,1.185,0.666,2.025,0.666c0.359,0,0.707-0.042,1.044-0.126c0.336-0.084,0.642-0.228,0.918-0.432
		c0.275-0.204,0.513-0.478,0.711-0.819s0.345-0.771,0.44-1.287c-0.286,0.252-0.623,0.475-1.011,0.666
		c-0.388,0.192-0.755,0.288-1.101,0.288c-0.228,0-0.412-0.042-0.556-0.126s-0.257-0.198-0.34-0.342
		c-0.084-0.144-0.141-0.303-0.17-0.477c-0.03-0.174-0.045-0.351-0.045-0.531c0-0.096,0.003-0.189,0.009-0.279
		s0.016-0.183,0.027-0.279C122.768,112.879,123.284,112.762,123.78,112.564z M124.75,110.233c-0.144,0.34-0.336,0.642-0.575,0.904
		c-0.24,0.263-0.52,0.478-0.837,0.645c-0.318,0.167-0.651,0.257-1,0.269c0.097-0.418,0.223-0.842,0.379-1.271
		c0.155-0.43,0.329-0.818,0.521-1.165c0.191-0.346,0.396-0.629,0.612-0.851c0.216-0.221,0.438-0.332,0.666-0.332
		c0.168,0,0.284,0.066,0.351,0.197s0.1,0.311,0.1,0.537C124.967,109.538,124.895,109.893,124.75,110.233z"/>
</g>
<g id="Layer_3">
	<path opacity="0.15" fill-rule="evenodd" clip-rule="evenodd" fill="#FF421F" d="M208.655,87.033h133.716
		c4.795,0,8.683,3.887,8.683,8.683v32.62c0,4.795-3.888,8.683-8.683,8.683H208.655c-4.795,0-8.683-3.888-8.683-8.683v-32.62
		C199.973,90.92,203.86,87.033,208.655,87.033z"/>
	<path opacity="0.15" fill-rule="evenodd" clip-rule="evenodd" fill="#FF421F" d="M17.634,87.033h133.715
		c4.796,0,8.683,3.887,8.683,8.683v32.557c0,4.795-3.887,8.683-8.683,8.683H17.634c-4.796,0-8.683-3.888-8.683-8.683V95.716
		C8.951,90.92,12.838,87.033,17.634,87.033z"/>
</g>
<g id="Layer_2">
	<path opacity="0.1" fill-rule="evenodd" clip-rule="evenodd" d="M117.674,0h124.657c4.795,0,8.683,3.888,8.683,8.683v33.63
		c0,4.795-3.888,8.683-8.683,8.683H117.674c-4.796,0-8.684-3.888-8.684-8.683V8.683C108.99,3.888,112.878,0,117.674,0z"/>
</g>
</svg>
